<mxfile host="app.diagrams.net" agent="Mozilla/5.0 (Windows NT 10.0; Win64; x64) AppleWebKit/537.36 (KHTML, like Gecko) Chrome/135.0.0.0 Safari/537.36" version="26.1.1">
  <diagram name="Page-1" id="r5YDIkAvL1ffZDL1mxzR">
    <mxGraphModel dx="1518" dy="661" grid="1" gridSize="10" guides="1" tooltips="1" connect="1" arrows="1" fold="1" page="1" pageScale="1" pageWidth="850" pageHeight="1100" math="0" shadow="0">
      <root>
        <mxCell id="0" />
        <mxCell id="1" parent="0" />
        <mxCell id="um-ow4C1Y7SK6Hag5-xn-2" value="" style="shape=image;verticalLabelPosition=bottom;labelBackgroundColor=default;verticalAlign=top;aspect=fixed;imageAspect=0;image=data:image/png,iVBORw0KGgoAAAANSUhEUgAAAWcAAAFlCAYAAAA3cCmGAAAAAXNSR0IArs4c6QAAAARnQU1BAACxjwv8YQUAAAAJcEhZcwAADsMAAA7DAcdvqGQAAH+/SURBVHhe7Z0HeBzVuf4nuclNQku5yU3yT25Iwr0EYkoCpOFQAoRAaKaE3owLNrgbF3ARBhdscO/dcpcsq/du9d57WfW66r3u+3/e2R1HDFp5196RVvL5Pc/7aLU7O3PmzMw7Z8985zuSJBgNfviXv/zlxqqqqlueeOKJD5955hknqra21sHX19d9xYoV1cuXL6975513emJjY0OSkpKC3nzzzf79+/dndXR0uCxatKhx4cKF+vb2dpc9e/bkvPbaa/2pqalBVFRUVNhLL71kOHr0aIZer3edPXt269KlS+s7OjrObd26tfCtt97qzcnJ8btw4ULE66+/PnD27Nmkuro699mzZ7evXr26kurq6nJZv359ydSpU3t0Op23t7d37EsvvQRXV9e40tJST76/Zs2a8u7ubuc1a9ZUTJ8+vau6utrj/Pnzia+99togFRgYGFVcXOw7bdq07s8//7yoq6vr3MqVK6vfe++91rq6OjdHR8e0V155ZTAsLCw8LS0tkPuwdevW/NbWVpfFixfrqblz5zY1NTW5Hj58OPP111/vT0lJCU5NTQ1+4403+g8ePJjF/Z8/f37TBx98UM/Xu3fvzn3zzTd709PTAyIjI8Opl19+edDR0TG1vr7ebfbs2W3Lly+v4bIs01tvvdVTUFDgGxgYGMmysPw1NTUe7777bgf3q7u7+xy1fv360mnTpnWVl5d7+fj4xHGd7u7uMSUlJd7vvPNO99q1a0tYv6y7GTNmtLMuzp49m/jyyy8bQkJCIqn8/HzfqVOn9m7btq2Q9bt8+fLauXPnNre2trIu0l977bUBHrvMzMxA7uuuXbtyWU4e53nz5jVRLS0t5/fs2ZPNukpOTuaxDuExPHLkSCbrifW1bNmyOq5/27Zt+W+++WZPdna2f0RExAWWmTp16lQyz4uZM2e2f/TRRzUdHR3On332WfGbb77ZV1BQ4OPn5xfFunB1dU2oqqrymDlzZscnn3xS3tfX57x27dpSasaMGZ1VVVWeXObVV18d9Pb2jiksLPR+++23ezZs2KDjecFzmN/lseY2WRehoaERWVlZvhSP09atWwtYbzzX582b18x9OHr0aDrPdZ73iYmJ8rHet29fFs8LHuuFCxc28DXF463URUxMTPDcuXOrXFxcTpeWls557LHHPn3sscf+1d7e/mNJkr4vSdI31RehQKDwy1WrVj1QVVU1bfPmzYHe3t55AwMDhdXV1R01NTV91MDAQHd/f39fV1fXYFdXl6GzsxP9Jjo6OtDb2zswODjY19nZaeDnfN3d3T3Iz5TlRlq2p6fnS8ty/X19fReX47ooZb38fGBgoJ/rGrpOvmYZhywnr5/r4mdUX19fv2lZeb3qZZV1Di2zshzLq8hU7ovLsjxDy6JabsS6YFmG1hv3j6/Vyyl1wdembXxpH031xrJYvH9clt/jMgaDYcRludzQsigabh/NlZvLqc8f9bLKOocca+7fV84Lrksps+p4y+tV6kLZP+V7rJuh+6csZ1pWXq+pfi+Whcuqyz1cmdX1xvOis7PTeIAGBrpKS0t78vPzm3p6euKcnZ0Dli9fvis+Pv7+Z5999r8lSfoP9cUpuPr4j7Vr1/7U39//pY8//jg4MTGxnCfOwMAABALB6MDrraamBp2dnYVubm4Bb7/99qaNGzf+H6W+YAVXD8KcBYIxRpiz4Ev89re//cnTTz+9OjQ0NLSjo6Oura1Nfc4IBIJRpre3F7m5uWhsbAyjjh079uG3v/3tv6ivX8HE5Adbtmx5oqys7HR2djb7M9Xnh0AgsBPKysoGT548mRMcHPz63Xff/V31xSyYICxcuPBnCxYsOBofH9+iPgkEAoH90tXVpT9y5MiZH/3oR4+qr2vB+OVb1NSpUx+pqalxrq2tVR93gUAwDmhoaICPj09BdHT0FEmSvq6+0AXjjMcee+w9yt3dvVp9sAUCwfijqampYsGCBWs5HkF9vQvGB/8ZHR39RmFhYRVlMBjUx1ggEIxTEhISDPv27fvC09PzGvWFL7B/hDkLBBMUYc7jl/984403VhcVFTWqD6pAIJgYdHR0dAUFBX0uSRKHgAvGA56enm8kJCR0qA/mSLBlPbR1PfR/5bX6/6HLjvS9oVi6rPr1pf4f7rORllN/PtKy6tfWfG+k5cx9Ptyy6u8NRf350NfDrdOSdZhb1tLPlP+H+2yk5dT/j7TscOtUfz7SsiMtN9yy6u/ZA/n5+YZFixbtlyTpO2ofENgXX3/zzTefbWhoKFQfRMYzU4ODg8jJyeHPIvn/0tJSBAcHIyAgAM7OztDr9WBEx/Hjx5GRkSEHxbu5ucny9fWVvxMXF4cTJ07wwQQqKytx7NgxOXC+u7sb58+fl9fHkzgmJgZOTk7gABduh+J6CwsLORpK/iw8PFwuU1hYGM6ePSu/X1BQgCNHjqCkpAStra04c+YMoqKi5OUort/V1VXeHrfLslRVVaG5uRmnTp1CfHy8POqK5XV3d5f3IT09HY6OjvK+UfX19XJZUlNTmVMBnp6e8Pb2lvcvOTlZXk9jY6M8covrz87OvlgXrCuK24iNjcXJkyflbZeXl+Po0aNymbq6uuDi4oKQkBB5ucjISHl/29vb5f3iOqni4mI5pwTrPiIiQl6W3+H/rIu8vDy5LsrKytDS0iJvi/XK5QIDA2WxLlg2lpH7xLrgsTl9+jQSExPlfWJdcB+5XFpamlwXrIO6ujpZPIZ8n597eHgwKkDeBs8TZf+4XpaZ5w/rnnXB7SvHheXiNnnMWF6Wm8eSdcF9V+riwoUL8rHmfnP/WWbWCcX64b5HR0fL5xC/w3OK22NdsJysZ5aH5WL9K/vH5SjuQ2ZmprxeHmseRx7PlJQUuZxclseaZeHx53p43iv1MLQuWLfq8145L/z9/eWy9PT0yHXP98bCvKuqqroSEhKmqs1AYEdMmjTpXkdHx2IeMJ54NB1eGBRPRhocTzJeeLyI+H5FRYVsHPyMhsOTniE7vJB5YXEdvEAomge/T9Pm57wIefLzYtbpdPLJHBQUJF8wPEl5gvv5+ckXIS9sit/jhcuLjSc3L35eMPzLZVkmmjgvfBo/v8uLgxeRYgK8SGjQ3B4vbi8vL/nC4k2A+8bycTmWl+XmPvDCZjm5bxQvMJaFRsp9omFQfM0LjeuhGfKi5fqLioou1gWNg2Idcx/5OeuCFydvBjQZ7h+Ni2VlWWgMrF+lLvgdivvIfWZd8Kag7B+X5Tq4LtZFdXW1bFw8jtwmt62UQ9lHpS5YZpaH+5CVlXXx5sAboFIX3HfWgSLWDeuCn4eGhl68UfD73CbXRzPn+rkd1j23y2OtHBeWi8eK5eQ+0th4LLkfPLZKXfCGoRxrmhvLwnqgeENiXbC+eA7xRqsca66L9ct65rFmWZS64P7x3KO4D2wAcL081jyO3AfeVJTzgsear1kX/IznPeuB66fy8/Pl9XDbSl3wvOI2uT6eb9wHXj8sCw2e26ZRs+yKuI7RICcnp/yuu+56S5Kkr6l9QTDGREVFXV9UVOTIk5gnC08wnri8UChe7PyfJzxPLraseHIKBALr4XVEw1b+0qx5I1BuFBRvDrz2eGOnsdO4tYKNimPHjhVOmzbtVrU3CMaWb8yfP39lampqN42ZrRb+vGMLR+knE0YsEIwObC1T/MWg/BJSutT4C0SrPDamX0V8QMiBZwI7QZizQGAnCHMWXOTFF1+cvG/fvlr28bEPjWYsEhoJBPYBTZP92exy5ENTPvCkSWtBfn5++xNPPDFT7RGCMeBHP/rRX8+dOxfIuzFPAGHKAoH9woeZSUlJ8rXKh+j835bw+j937lzS66+/zhlVBGOFk5PTE46Ojrl8GCEQCMYP7O5g5IcSNWVLuru7exMSEt5R+4VgdLjpk08+WdfS0qJTHxiBQDA+YOuZkRz8y5BCW5q0i4tLtiRJd5skGA1OnTr1ww0bNpxl3K9AIBj/sP+Zg1v44NBWMKb7gw8+WESpPUSgAddff/3NKSkph9vb20XHskAwQeADfA564cN8JcLDFtTX15+gwsLCvq32EoGNEeYsEEw8hDmPc26++eZfffLJJwHsnxIIBBMThtpxmD1HGlJXQkZGhp6aPHnys2o/GTVmzpz5TUmSOPnh97TQE5L0fcOffz5mWZ+eeeaZ76Wnp+/g8FCBQDBxYeuZURxK2oUrgflYqLlz5x4Ys5wby5Yte2rnzp2nDx48ePzAgQPHbKb9+4/tPep44vTHHx4t+9NP5xt+IU3G3deN5tQw3NYPlyxZsrO9vd12j3IFAoHdwsEqSrZAjva90kx3FRUVHgaDYWxGDa5atWo9Q1HYX8OsVrZUV08P4sLDOs795ZZVhv8nTTXcec1Sw6TrnjNMuuEmPCB9Q10WW7J48eKZVFhY2JX9vhEIBOMKpjyl9u3bJw/7vhKqqqp0Cxcu/LPaX0aF1atXOzCdoVYkpKbW3zbllb8YJOk7ht9fd7/htuveNdx2zTLDpGumG+645vf47Y+uU5fpStm8efPtVVVVCZS6PAKBYGKjdGswu92VjiJk2tcpU6Y4qD1mVBDmLBAIJhITxpxXrVq1mn0zRN0tcaUi8fHx9f98+un7le0Zfv7z7xh+c+3tA7de+7rh9uuWDtxxw1zc/t1HDLdc89Mvl+yy+cn69es9ldlLBALB1Qu7bJlh8nKhj3l5eW1Rm8yoYK05czYK9XvmRGjOTz755APq7UKSvmG4/Qc/N0y6/smBSdctNUy6fkn/Hdc9b5h03a34rfSflPo7lrB169aXkpKSRD+zQCCQJ8ng9GecreVyaWhoOP7kk0+O/kzdlzJnjllnzCAfGPI1W6OWPjwk5sx5KIY//uAGw63X/8lw5zUzBu64bvnAHde/Qxluuf4v+LUc5mcRzz777M+rqqp8VXUrEAiuUuhDnAPzSvJAnz59uvCb3/zm6OfZuJQ5c6comjJH37DlzPHsNGr1smoRS8xZgREcPb+/7taBO254iZK7PSZdu8Aw6YZ/4A/X/ASS9HX1d4bwzWeffXZDeXm5bYYICQSCCYEy3+HlPlvz9vbW33nnnX9TG47mjGTObDHz58Dnn38ud65z4scNGzbIE2cqRq3+zpWYsxrc/e1fGG674e+GO26YO3DHDcsNv73hFdx23S2GP391KvP77rvvf1xcXJJsNXxTIBBMDOhjnLGck/ZeDh0dHSX5+fl3qj1Hc0YyZ06qyB07dOgQpk+fztEysjkr6fkY8K3+ji3NWQF3f/+7htu/e9fApOumDdx23fKBO7/zbt/t3/kzbv/u95VlIpPTnuvt7b38jiWBQDBhYXpRzpB+OVRXVzdv3Ljx6S+70iggzFkgEEx0Jpw5s9uC5syugieeeAK///3vodfr5WXZ73ypvmdiC3NWYASH4bc3/O/A7df9y3DHtYsNt18733Dzfzw0R5LuPHTiZOCXalQgEAiGwMRnl5P8LD09fXDKlClz1H6kOSOZs2KwpaWlDMTG/fffz2xN8gNC9kP7+/vLY9fNRW8QW5qzAiTpa8zTwf5o/N/X307+3+9uT16zpAu6PKC350sVKxAIBIRZ686cOSP/4reG1tbWVk9PzylqH9KckcyZrWb+XbZsGb744gvs2bMHs2fPlh8IOjg4yPGDZLTNeSiMl+5xOeJgCHABTuwCzh4CUmKA5kajBAKBAEBlZSWCgoJkv7KG7u7upry8vMfV3qM5lzJnps07ePCgPNKGPwmYTKSsrEyeopzTw4xFy1nFf3lGRDnJG6suA0J9gKPbgaPbjAr3ASpLgAExWlAguNphN2xfX5/67RFJSUkZfOSRRxarjUdzRjJn7gj7nfkzgDtEMd6Zpk1j5uy3NGdz/c5Ea3P+6U9/et95V7cvp55qqAOSoow6ux849AXgeRrISQe6Or60qEAguHrg/IAMC7Ym5DY7O7v/1VdffV/tPZozkjkrBj00KoOvKU4Nw7hnRnSovzOa5hwYGPiP2traFlV9/hv2QRdkGc35yHbgzAEgJlR0eQgEVyEczu3k5GRV18bg4KC+v7//YbX3aI4wZ4FAcLUwocx5OCkhdtRIowSJ1uYcExOzsK+v79KJjjgjQlUZEOYNHN8FHNsJBHoAZcVAn3VPbwUCwfiEpsxnZ9Z0a1RUVHR+/PHHb6i9R3Mux5wptqjN9TUrIhqb8/c++ugjD7beraK1EUiLB5wPAwe/AFwdgZxUoOPyk6MIBAL7h6as0+msyrORmJiIyZMnf6g2H80Zas5sBY/UEh4qS5YlWprzT37ykx85OzsHX/Y8Yd1dgC4f8DlnfGh4Zj+QcAGoq1YvKRAIJgBsyB0+fFiepdtSmpqaWo8fP/682n80x8HBYTXD5YjSGmbT3xYiCQkJmplzZWXlf/X29gao6tJ6OI16fTUQEQg47jAadcB5o3FT/daF3ggEAvuELefU1FR5OLeldHd3N8bHxz+m9h/NWbNmjWzObH0q/cjKLCJXKq6T5jxlyhRNzPlvf/vb3bGxsTp1ZV4Rba1ASizgcgw4/IVRLkeBjESgvVW9tEAgGGfQoOlzlpKammp4/PHHRz/OecmSJasDAgIQGxuLCxcu2FTsqzlz5kz9K6+8ook533nnnY8GBARoE3bBKa6UlnOgm3Fgy7EdQLg/oK81PmAUCATjDkZsREVFWfxQMDc3t+/NN9+crfYfzRHmbAZhzgLBhGTcmPPixYtXc7x5UlKSPHLGljLFFGpmzuHh4be3tLTkqytTE2orgehg4OQe4MhWwO8cUJhtfKgoEAjGDfS60NBQi815YGBA39zc/JDafzRnaLSGMkTbFmKfM9EyWsPR0fH31dXVlz+17uXAfufcNGM/NMPwnI8AiVFAq0glLRCMB5TnapbCOOeVK1e+qfYfzaE5K9EaDDOxpYiW0Ro33njjFHd393ZVXY4OfKBQrgP8zwOHt8BwfDfqvDwQn1iIqJx6xGTWaK7I9CqkFOjR1WP5iSYQXITJwBpqgdR4dET6yMosCkNiZRRSyiO1VVkkEkvCodPnwmCwrAVrK5jEraCgQA5YsISEhATcd999YxvnrI5THhrTbGls81ARLVvOzz///IPJyclfTno0FrQ0oNrLA+Er1iHcPQa+Gc3wT9bDP6leMwWm1MMnoRZH/QqgqzI/el0g+BJMZ1BfY0wK5nEKcNwJHNuFTKd1slwSDyKk2B/BeZ4I0lCh+T7wTD8Nz/QT6Oob3fYVM2ru3LnT4tYz45zPnTv3nNp/NGckc6YRD52SSoldZqtYvexwIlqac1VV1S29vb05Q+pxzMisbIdbRCnKartQ1gyUNGirsiZA12iAa1Q58sq0eSYqmCAwEyNTFyREAq7H5V96OLnX+KsvKwWG+hrEl4bKCin0h66hFPl1+ZqquEGHlMpk+GU5oaNndBsXjHHOzMy0uOXMfM6FhYWjH+cszNk2CHMW2C3CnL/EhDBnGjOnpGIfDV+zI53LNjU1yUatXl4toqU5P/bYYw9HR0dbPkheQ7JLG+GaWI/CJqC4bgAFtQMo4F+NVFQ3iILaQbhFlaOgvEldHMHVTncn5GnbYkKMOWSObTcm/ApyN2ZpbGniaIyLiyeWR8oKyfNGgb4Q2bVZmqqgPg9J5QkIyD6Hjt7RHdylBC1Yas7JycmGRx555AO1/2iOOXNWMs/RnFetWgV3d3e5Y3zp0qXyTCjq5YcT0dKcb7rppme8vLzsIltRfnkj3KMrUFg/iKJ6GqfJoDWS0ZwHhDkL/k1bizG8M9wXcD4EHNpiTJEb4gUU5RgjisyEj6WURcgKls254Ctmamvly+YcPybmHBISIvc7W9rnnJeX1zsmcc7mzJli65h3Fzc3N7z88st49dVXceDAgYt3nJGmqBoNcz5//vyder2+4Es1OQpwv/sHBtHXz5CcAfl1tq4B7jGVKKw3CHMWaA8jHDragZw0IMDVKCbuOroVOH8UiAwESouGjcM3YBADg/1D1Ifk0guyQvJ8UFA/sc2ZE1NzJidLh3Cb8jmPbZyz2lzb29sv3l2eeOIJ3HnnnRffT0lJYfyf3P9sLnUo0dKc9+3bd1dVVdWoxjkPGgxIyquDZ3QJAhMqEJhYgZCkShz3z8X5qHKUNAKFJuPUUsKcr0KYd5xTsNGQ2V/MCY3ZXcE8MFR8OFBSOGJ+8q6+DsTqghCa54HIQj9EFfkhotAHTol7ZIUX+KGwoegrZmprjaU5K55lKWVlZV0rVqx4S+0/mjOSOSsGSyN+4YUX8Pjjj8sjazjF+JYtW7Bx40Z5Ti6OtFF/bzTM+de//vWz7u7uozopYG/fAM6FFcMtuhpROS0Iz2pGVG4rnMPL4RpVIT+sE+YssBnMiMiHeWlxgPtJY+jbkW3GmX1S44yf9XQbZQF1bZVwStqHwFxPRBaH4EJRECKKQ+CUdEBWeP7EN2dr45yZhuKBBx6wrzhnNvtbW1sxf/58HDlyBK6urnjrrbfkJ53Mh7pgwQJkZGTIOzlc/DPR0pxfe+21B5OSkoaNc1bKwFkPbElPbz+8Y8qQXNKFylZj5ERVO3Ahqxnu0ZUobhDdGoIrhLHIFSVAYiTgeebfD/O8nICMBKChfsTW8UjUtlbAJ/MssmqyUNhQjDx9PooadfDLdpEVlu+DwlF4IDiW5mxtnHNzc3PL6dOnn1X7j+YIc7YOYc4CzRHmrCkTwpxZ+NraWnh6ekKv18sG7Ovri8DAQHz22Wfw8/OTQ1LMPRQkWppzT0/PLf39/bmqupRpaWmRxXIePHiQFaxe5LKgOfvEliG+sAO6BoNskKVNQGh6A9yiK+X3hDkLrIbdEqWFQFSQMW8LIy1O7zM+6GMul9Ym40PAK6SutRI+mWeQXpUqG2ROXTYK6vPhk+kkKzTPZ8J3azDOmY1KSxMfdXV1NSYnJ9tXnPPQQShDkxmxv/npp5+Go6OjHPfM99XfHQ1znj59+p9zcnJqhtTjV2B0yQ9/+EM899xz8Pb2tupBwHAMDAzCP74cccKcBZcL+zqZQIvpaBn2RsmRFtuMoW+chDg71Tjxg41p7KiDb+ZZpFWlIK8+D9l12cgfYs5hV4E5W5tsPyUlZfDRRx8d/WT7I5mzIiUaQ5nCKi8vD8HBwQgPD5db1hw9qP7OZZrzdZIk/ZGTnJh0vxndJ0nSPdddd92KTz/9tIcpACMiIr6USzo+Pl4WwwB/9atfQZIk/PjHP8bUqVPl1j8H0owEozLaOntlNbV1o7mtGy3tPahr7IBHVIloOQusp5lPi3OAIA+jGR/abIxHpmKCAV2BTScZ7h/sQ1t3M1q7m+S/7T0tKG3MM7Wc065ac2ZQw7lz5yw26JycnL7XX3/dvuKchxNb00OfcjIsZbj+5ss055slSXKVJCnFpOgRFP6tb30r5a677up+8MEHce+9935Jf/3rX2U9+uijF81Z0S9/+UvZoEeiSt8Bp9AiWa4RJfCIKoVndJkcqbHfIwepJV1yfzMNUpizYFj4s5mhb1nJQKA7cNwUacGwt5hQoEIHdHYYpQG5NclwTzuGwBwXBGa7IDjPHa4ph+GcfFDuzrhazZmTi5w6dcpic2acc3t7u33FOZuTMhGsIvXnV2DO35ck6Z+SJL1s0gsj6Mlbb711yc6dO+u9vLzg4uLyJfE9il0vv/71r2VTvvbaa/HYY49h165dqKysVB2CL5NVrMeJIJ2shMJOJBR0ILGoC9F5rXAMLEayrhMlouUsUMN+YU7MwBzfPk7GB3kMf3M7ASRHA7VVww4MsTVsQEUUeMMt7QQSy+MQW3IBieXxCM71hkvKEdkgr1ZzZhetktLYEioqKrocHBzGJp+zteZsqYiV5mwV99xzzyOhoaEjZk3hSCCa8n333SdHnLAbxhKySxrhG18ji97HVjL/FtcPwDm8DIlFHcKcBUYYXUHTpSG7HTdOZ+a4C/A9ByTHGFvPFj58shXMkRxXHIQLhQHQNZUiT58n/00pj4db6jFk1mRcteZcUlJycXyGJTDO2W7zOV+uiDBnbSTM2Y4Q5my1hDlbAM1Z+YmvJNO3lYiW5vzqq6/en5ycPGy0hhJK5+DggLVr115M1mQpOaWN8IqtllVcb+xbLq43ILe6D2dDS4U5X820txnjkKNDjGLoG/uSOb8k+5azkoyxyIOWjUDTAsWcQwt85SxzWbWZ8t/40ii4ph5D1lVszoxz3rFjh8Vxzky2f/78+dGPc3ZwcFhdV1cnF4L9VLaSQlJSkmbmnJ+ff2tnZ+ewcc7M/0Fdqm/ZHDRnz9hqWcKcBXLGN4a+RQUbw90YacE4ZCrI05iGs1Gv/taYQXOOLQ5EaL4wZzVKnPNQnxqJ7u7uxry8vLGJc2buDLYsdTqdTUVj9Pf3r3/hhRc0MedHHnnk4aioKE2uCGHO9kX/gAE1DR0oq2lBRV2r5iqva0O5vgMdlVVApD9waq9xpJ7TQSAiwJhgiC1oysKLfDQR5mwePhBk+K+l5jxm+ZwXL168msOyg4KCLkY42EqMgz527Fj9K6+8ook533TTTU97enraLjB0CMKc7YvCyhacDCzE+YhSuEWWaa+ocpyNqkTwaT90nj0ERPoBZcUWJxgaa4Q5m0fJ52xpKF1BQUHvO++8M0vtP5qzYsWK1czQxC6AhoYGm4oPBcPDwzXr1vD19b2joaFBk3zOwpzNwwcpzLli6cltC2Iyq3H2QhkyK3uQXtYrK620RzNlVvQivrgDp/3zUFNj2/wso4EwZ/MwzvnkyZMW9zmPWZwz+5yVCAYWluJFd6VSnoQmJiZqZs6HDh36fXV1tSb5nIU5jwxbH+vWrZNHi44G8dk18E2qlZNNcf5EqrRRO1U085j343xsNaqbLY+JtResMue6PHhlO8sKKQqY8OY8dD5USygtLe1aunTp6OdzFuY8PMKcR0aYs30jzNk848ach8Y5KxEO6pC4oe8N9/lwGo045xtvvPFZV1dXTca+WmXOjcOZs7YqqjNu2y16bMyZs+BMnjwZd9xxB/bs2SP/ryWJObXwiq+R67ewbkCW+oZlS/FYZ1f0yX3cfBA53rDInOvykFObjdyWEnjnu8oKz3Y3pgyty0ZObZZm4gSvyWNkzpeTbP++++5brvYfzbFkEIoyrQs10rRUahEtzZn5nJOTky0bVWIlI5pzSInJnIH8OgNKW4GAvHa4pDSjogOobAbKNVZlCwfFGOAZW4F8C8yZ0ThUVFQUYmNjERcXd9niRL/M6T1r1ix5WPy3vvUtPPzwwzh06JAc4G9pcL81pOTXCXO2gkuac3W6bM6Z7aXIqc9FxrEVsvI8d6O4tRIFTToUNBRpJg6ISa9OR2DOeXT0jDiOzOZYG+fc2NjYanf5nBUx9IRdFUqXh/pzcyJamnNbW9stAwMDOaq6tAlfMecakznX9uP0hSoklPejuBPI4+jB1h5EJejgdyYEiYlFCMlsRmhGI0IzGjRTeGYjgtPqcSygAMW8G1wC5hOh7r77bnm05AMPPHDZuv/++/GPf/xD/ktjHppUat68eVeUO5utmSp9O7J0euSWNiC/rBEFnNk8ogjeCTXyrxRhzpdmJHN2SzmCzLpsZHdVIT8/Gvq9HyNz/euyAkN34kJpGMIKAxBW4K+ZIoqC4Zt9Hl7pJ9HVq0nAlVkY5puVlWVxI6K7u7spJSXlcbX/aI45c2bXBE2ZFxqHPXNnOFjl8OHDcguMJq10X5gT0dKcH3744UdGI865qAnI56zzHUB2E3A6ohLJGVWoTMtDhW8wGk4cQ/G6dUhcvRZh3gk4G1OHcxHlcNFQrpEVOBNWir0eOdCxGX0JmFaV4vFjMigOa78SMfxy2rRpF035Zz/7mZyOlRMxWJNURk17Zy/OBhfiZLAOHrGVcI8uh1dsBfZ4ZsvmzB8JwpwvzfDmXID4kki4ZJ9GeksRSmO9oP9iEfQnNsMn2VHW0bQD8M50gkfGaU3llXkWZxMPwD3lKLr62tXF1xSloWkpzOf82GOPjX6c80jmzI5zGvSGDRvwwQcfyMOg+betzXinM5fHebTM+eabb37G09NTkyObVdMFt7RWWUXNBhSV61GakY8y/1DEbdqJsm3b0bRzG2oPHoDe2xfx7mHwDcxEsb4bhfWDyK/t01RFdf3Ir+mBa1TZmPQ589kDZ2T//ve/jzfeeEPOkXslpqzQ2NqFs6HFSCzuQFH9AHKr+qDT98M7vhpe8dUobRTdGpYwvDkXIrYuGeeyTqLUbS+aP52DUv/jyGkvg1eRpyx5JhR5mqpMTcWHkXwg6D8Gfc7MRW9NnHNeXl7f1KlT7SufMw2aO8AcFZx5+5577kFxsTE4gu/x7sMLUv290TJnxjk3NTXZPs65qwO6xHREOHrKqnN2Qf2+PWjcuQ01Bw4gcusB5AVEorSwBgXVHSjpAIIKOuCS2ITSFj7tN8h9o1qqRN7GIDxiKsbEnHmCcz5JtqCVY20Lmlq74BZViszKXpRzxHSDAVXs009in7MwZ0v5kjnXFyCrPgfZPTVIywtF6sa3Ubt1CYpSgpDZVorcFh18Ms7KupDvj5KmEjmaQksVNxQhrTJFzjU92ubMX3enT5+22JwZ59zd3T36cc7CnIdBmPMlEeZs3whzNs+EMWd2mvMn7FNPPYU//elPqK6uRnZ2Nvbu3SsP0eZ0T+a6N4iW5rxv3767KisrryzOeXAA6O4EynVAQoRxQk3ng6jZuhEZ6zfJqjvrjIqQKJRl65Bb0YYTMfWIrx6ArgPIZ1xsC+QHgG5RldDpaR7s1hjQVMo2xiLOmQ/tGI5kafpVa2hp64ZrZAlSSnpQzGgYU6iibwJD6YQ5W4pszkU0Z2/kt5Yio70EuuQAVG6cg8zPpyNHF4/M7irk6HPlOOcvjxAs+Eo3hK2VX5+LpPK4MQmlU3JrWEpZWVnXihUrxjbOWW3MSp8zZ7D+8MMPsWbNGixbtkzO6MSpxd955x0GaMvfHe7hINHSnG+66aYpbm5u1l05jG3kTBR1VUB2MuDnYswydmIXcGIP4OsMpEQiPzoJvtGlsopagPxWoLAdyGkw4HR4BRKLOU2VQY7iGD7O+asXvC011oNQtIJzNbpFliKlpFuuS+5jmTBnq5FThhYFIqg8DHlt5Sj1OYzW9fOQfe5znM8yPhCUB6HIA0KuruHbjNZgA9PSOGeGjk6ePHls8jmbM2e2mtlSXr9+vRzXyoEGK1eulCM3+OSfP2uTk5O/8t3RMmdmu0tKSrx0862jHaguB3JSgSB3Y/5dx+1GQ/Z2AuLDAV0e0KTnMEn5K1l1XXBPapBV3AgU1A0OGYSixDlfvSMEbQEf/iXl1SExtw7J+XVIK9QjLKUCxwMK5NwWyhyNwpyth7YTVReD0HQX1B/diLrNi1GWFICY+hS4ZJ0yxjlfpbk1OLmrNXHOLS0tLZ6enlPU/qM55sxZERPcsH+ZLWiaNbsxzp8/j927d2P58uWySZv7LtHSnHV6/W+6enu/HOfc1wvoa4CcFKOY3pETah7eYmwZ83WEvzE3L2eo4PLDYAylq5L1lUEo6hGCwpwvi9isGhzwzjdGYsRWwSehBk4XSnHQpwDZlX3CnK8AmnNWgjNy1r4F/V4H5BbGILe3FvEVsXBLOXpVJz5S8jlbGufc2dlpX3HOFFvPHIPOjnP+Vcajp6amYtOmTfDw8JD7o8eqz/kvTz99f0RiUp3cZ5ydCkQGAq6OwMndxlkpKLaSadC56cbZKTilkAV8ZRCKMGebE5VRDb+kelQ0G1CsH0R5swHZVZ04E1qK9DLRrcEG0WXBn+txEaj8+C1kn/0MuU1FyGjTySFyjHP+Sm6Nq8ycre1zZj7nhx9+eInafzRHmPPwCHPWHmHOIyPMWRsmhDkPNemh/7OvhkbNv+aMWStzxm+l/8Sd3/2e4f9J/7PrFzesjFm1sBc+Z4EjWwHnw0CIJ5ASC9TXGjVgWb+SGmHO2hObVY2A5Hq5/lhnzDSXVdGNM6ElyCjrge4q79Zgch6O5lQeultEaxPgdhKG/ZuR6LsdoVWRyGsv/2pujavYnBkGevbsWYtD6cYs2b4l5qyW0poeKcaZIldqzrhb+iZuvu6Hhluv/7/+27/7iOG2618fuOPaeQM/kd7revbPH/X5u5ShIAOoLAE6bDdGX5iz9tCc/ZLqLobM0YzTy7pwOkSYM2HqhJdeegl/+ctfcObMGfl5z4iUFgJHtwNHd8BQXYHoulgEF/mjoD5fmPMQrI1zHhgY0Ov1evuKc75SEWvN2fC/0g2G/73hJlmTrr93YNK1Lxluv37+wO3XLhz47Q3vG357wyuGO7/zR8M10k+Pf/HZveX19VcW52wGYc7ao5izYsJ8AJhePr7NmRkba2pq5CinKxHXQTNmyCrbKNdffz2ee+45uLu7Q6/X/zsMjH/jI4za5gD4nwc62+UHgrG6IHk4tjrx0dVuzjRla7qMGOe8fPnysY1zVudkvlKRS5lzzR3StYZbfnizYdJ1k3H7d/9luP3a9w23X79Q1m3XzjXc8e2XDbdfd79hEg1bugEPSN9QvvvjX/3qKTd3d01yawhz1p6JaM6cN/PZZ5/FP//5T0yZMuWKxFYzDfkHP/jBxQRT3/zGN/Dqa6+hpK4e6OsBPM8Au9calRgJGIwRCOZyawhzlpPnIzc31+JojTHL58yZUHiXJuw/tqVIUkpK7V+eef5ebguS9DXcLV1juOWanxpuv/7PhttueNFw+3dnGO64/gPDbdfOM/z2hlcNd9zwWM9t191CGX7zX9cPNWM1b7322oOpKSnGwtsYYc7aMxHNmQ/LP/roIyxZskT+eyX69NNP8f777+O73/3uRXP+v9/cghWfbUJVZqpxJnCGiJYVGTUEYc7mYZwzf5FY2noes3zONGemAGX/sRKRYSv19PYiOia2fsHfH3oK10m3GG6//umB26+bOTDp+iVyq3jS9W8Ybv3uw4Y7vnmb4dfX/jck6evq8o0E8zn39/ePTj5nYc42ZyKaM2GXg6Wjzy7FF198YTTl//s/OKxbh0xdKQyFWcDeDcZWc9vwxibM2TycECInJ8filjPzOWdnZ49+nLMw5+ER5qw9wpwvjTBn2zNuzHnx4sWrGa/MfLz+/v42VXBEJM7t2dkR84dfbDP8QpphuO2Gdw2TrvlH723fu8Nw1zU/ZSSGujzW8Nhjjz0cHR1dr65MWyDMWXsmqjnbCiaXevHFf2HGzJlIysrGYH8fkBAGHPwciAq+mGpgOIQ5m8faOGcm23/kkUdGP9n+smXLVnNOOWVIo62UmZGJIl0JAs47Nx988Hdv4afSD/HbH12n3v6V8Jvf/OYpHx8f28XPDUGYs/ZYZ8418E2skedOZB1TxXrtxG3mVQ/IkxmMlTnzF21sXBw6+weB9hbA+RCwbyNQlKte9CsIczZPUFCQHJpoaSgd45ynTZs2+sn22a2hpH5kYW0l5SdDYkpq7R9eeOUv6u3aAg8PjzsaGhpsn89ZmPOoYLE5NwG+ibXwiKkyzo5S3S8rp6pXM+XX9COtrBvnLpSitnFszPlix0hhNrDrU8DtBNBi2bEW5mwea83ZYDDo+/v7H1b7j+YMF0qnjle+HDHek8THJ4wYSnclbN++/e6KigoR5zzBzZmzjfsl1WLH+Sw4XyiH04UyWWfDSzWTc0QZjgXqcMArB/pm200mYBU93UCwJ7BnvTEFgYXRBUSYs3nYpcFnYpZSWlratWzZsrfV/qM5w5mzLUSDJpeKc74SmM/ZXcQ5T3hzZsvZL7EGp0JKEF/Qipg8o6JztVNcfps8gcKp4CLUNY2BOetrAadDwO51QF6G+tNLIszZPJzNiWmPLX1oyzjnyZMnj36cs72NELSGV1555YGkpCQR5zzRzdnU58zWc3U7ZLOmOMmBVqpo5izfg3L9jnqfc0E2sGeDsY9ZX6f+1CKEOZuHcc67du2yOJ9za2urfeZzvhIRYc7aSJjzVw3VlhLm/FVDtaWEOVvAeDbnqqqqW3rVyfZthDBn7bHOnK+CULr+XiDUx9iVEeJl7HO+TIQ5m4fdGpzZydI4566urqaoqKh/qv1Hc8azOT/00EN/j46O1qvq0iZYZc6mOQS5bEWLsVVHo9FSNKyiJsA1rlqYswYadXNubgTcjgM7PgGyUtSfWs3lmvOFwgCUNJciT5+vqYobi5FaZZp9u6dFXXxNUVIdWwrzOT/66KOjH+c8ns355ptvfsZe4pzD0hvgFF6GzIoeZJR3I620S0N1I6O8B9l5ejhfKEFu9SiYhwYIc2YzLs8oxi+fPQjUVauXuCysM+cC+GQ5yfLPdkVGdRqSKxI0VXpVCqKKw+CX5YSOXk0uYbMwlM7afM7Tpk17V+0/mmOtOTNETv2eOREtzTk4OPiO5ubmMY9zZkv5QlYTdpzPxOlQHc6GlcoJ47XS6dAynI6sQsTBcwhevxNl9Rqah4Zc1ebM/s7oYGMXBsVUn122246l5pxTlyW/7515Vtax6M1wTzsJ11RHTeWedgKn4nfDNfUwuvtst9+WwHzO1sQ59/f3W5PP+b8YSCZJ0q9M+rVJP5Mk6SeSJN2g/oJZLDVnhscxNpD9NPyr/nw4ES3N+eDBg3dXVVXpVHVpE6wxZ6XlzPjYtLIupJZ2IaVEQ+m6kFLZj5ysEuQ6OKDVzUld/HHBVWvObS2A1xlgxxogLcEoG2OpOSvdGt6ZTrL8sl2QUZ2K5Io4TZVWmYio4hD4Zp4Z9T5nepilxkzKysq6rYhzni5Jko8kSc6SJJ2VJOmwSY6SJIVJksTprizLIWSpObOPpqGhgWaL+vp6+X/1MmoRLc35xhtvnOLm5mbjK8eItebMPmeP2KrR6XPWG/ucC7uBAN9klDl8ACSGqnfB7rkqzbmsGDjwOXBiF1BVpv7UZlhrzhf7nAuMfc75+nxNVdyok/ucA8agz5n5nPPy8ix+IMg45wceeMDSOOf7JUlaIEkSu0FeMpkxVSNJ0oAkSXMlSfqa+kvDIsx5eIQ5a48wZ2HOwpxHwFJz5s+AiooKnDp1St45/q9eRi2ipTm/8cYbD6Smpl61cc75dYM4l9qKvPBoYMtHQFK0ejfsmqvKnGkECRHA7vWA11lj14aGXK45Xw2hdNbGObe0tLS4ubldTpzzn0zdG1SwJEn/kiTpO+qFzGKpOfNBIPudGxsb0d7ebtGDQaKlOVdXV9/a29t76RRdl8F4MOeCmn64xVaioLEPSLwAfLYUKMhU74rdctWYc0c74HfeGCaXHDUko5F2CHM2jzJNlaXDtxnnnJ6ebk0+5+9LkrRIkqQISZI2m/Rz9UKXxFJzpvggkC1me3kg+PDDDz8SGRk59nHOY2XOyiAU5tEkYV7AzjVATaV6d+ySq8KcqyuAw1uBY9uBCk2eXQ+LMGfzsEuWk4tYSlJSkuHhhx9m14Ql/FmSpCBJksqZkXlItMb/MPpXkqT/Vn/BLNaYM6UkNbJEREtzZj5nb29vTY7suDJnZRAKJ/f0dgKObLU4teRYMqHNma2ylBhg/0bA9TjQ0qheQlOEOZuHoXSnT5+2OGKDcc7Tp0+fpfYfM2wxzfeYI0nSUUmSzpjkJUlSiCRJc2werXE5Ilqas5ub2+16vb5QVZc2YVyaM+ntAc47AmcP2TRuVgsmrDn3dAFB7sC21UBcmLG/eZQR5mye4OBgqwahMJ+zwWCwNJ/z3ZIkPSdJ0hOmB4Kvm/QaH5NJkvQHmz8QvBwRYc7aSJjzV+vElhLm/FVDtaWEOVvAeDbnjRs33lNeXl6iqkubMG7NmbS3Aif3Au4nAc47Z6dMSHPm8OsTu4EjW4BiTZ5VW4QwZ/Mok1lbSmlpaffixYunqv3HDJMkSXrGZM5PSZLEB4kUPfBBSZJuvSxzHpoo3xYiWprzjTfe+Kw9xTnbjTmTxnpjPC2HBVv4VHq0mXDmnJkM7P8cOHcMaGpQfzqqCHM2j5Js35o45/vuu8/SOOeZkiQFSpLkKknSSUmSDpmUKElShyRJn1vc58w5BDmohChTuttCCklJSZqZ89tvv31fWlqabTLFqBj35kz4o2KLAxDuq/7ELpgw5tzXC4T7AFtWAZFBI86KPVoIczaPEufMWbgtobm5udWKOGdGY9wiSdIvJEn6f5IkLTapUpKkC5Ik/VX9BbNw9u2IiAj5TpKWlmZTMZbQ1dW1/oUXXtDEnNva2m7p7+8X+ZzNmTNh+snPlgBJkUbZEePenDmVFHX2AHBwE5Br/XRSWiHM2TwlJSXIycmxuOXc2dl5OfmcmeToY0mSIk1aZVUYHVm8ePFqb29vREZGyqn0bKm4uDiOKKznjCXq7doC5nOOjIzU5PfjhDFnwodSG5calW8/g1TGtTnnpRu7jagztkv1aSuEOZuHLWZr8jmnpKQYHnvsMUvzOf+nJElPmkLnzpn6mSnrYbcGh2VzKKN6ktYrEfuc+TQ0Nja2fsqUKZqYs4hzttCcSZivUbvWAtXl6k/HhHFpznzCHxMKbHcwzlpCWfjzeDQR5mweJVrD0uHbhYWFPTNmzLA0n/NsSZL6JUnSm7ozaNQUIzX4Gbs1LHsgKMx5eIQ5a48wZ+0Q5myecWXONTXG3EEMMaHY5LeFSGJiomYPBGNiYm5vaWkZ82T748Kc2b9G+TgBh7cYp0UaY8aNOTcaI4/kOjt31NiVkZOm3h27QpizeWjOzs7OFsc5Dw4O6tvb2y1Ntr9CkqRYSZKcTHI3icmPOKx7vsXRGuM5lG7Pnj13V1RUiDhnS8xZgTkFXB2BM/uBznb1p6OKtebsHV8jp2Nl/VKcHVsr6fRATmUfXGKrUN3WB5TkGYfFH99lzJdh5whzNg9N2VJjJoxzXrp0qaVxzteYHvz9RpKk/5Uk6TaT/mhKfvQ9i1vO43kQyk033TTF3d19mKc1V86ENWfS1Ql5vjqaNMPAxghrzNknoQZ+STWoaoM8oS7F+tdKrNICvQHusZWoCQ4E9n4KBLoB3V3q3bBLhDmbx9rZt62Mc6Y5fyJJ0kLT/8p0VcyvwUx131Atb57xbM5vvvnm/enp6Zo8Jp/Q5kya9Maf577nxmR4MbHUnLl7vom12O+VB9/EGvgkVMvyjtdOPok1cE3Qw32vC1p2fQZkxNHy1LtgtwhzNo+1+ZxbW1tb/Pz8OOrPEmjAFabczYRzBlLMalcoSdIM1fLmGc/mnJmZeWtXV5eIc74ccyaVJcDW1caHWmPAZZuzSd4J2sknqQ7no6tw7mQImgs0Sd+iKcKczXM5+ZwTExMtiXO+zhRCx5bzcLA/2sW03KUZz+Y8efLkv0dERIh8zpdrzoQPtjYsMc7SMcpYas5Kn7NvQg0qW//d9aDTa6eyJgPyanrhEluNmlb7i8a4FMKczaPko7fUnJOSkvDggw8uVfvPMLA/2c2U5Gg4mBDJQ5KkH6o/GBZhzsMjzFl7hDlrhzBn8whzHgVznjRp0lN+fn6aHNnLNedivQGF9YPIrx3QVIwoyK+xgTmTxAhg03Igb3RHD1przuxuKG8GivWDspSoDS3EsuRU9eN8ZPnwIwTtnCsz50Jk12Zqqvz6XCSVx42JOQcEBODkyZMW9zkXFhb2zp49mwmNLgVD5HZJkuRjmvlkKD8yhdMdkyTpm6rPhsdac+Zdx5L5AymipTn7+vre0djYOPZxzo1Gc3aPqUJZszGKgCatpWgexfWDcI+2gTmTC/7Ark+Bau1mhFZjrTmPWZzzVWHOzrIuFPhD11SCvPpcTVXUUISUyiQEZo/+7NshISFwcnKyOJyuv7+/obm52dJ8zr8z5dIIN+XWWGmSryRJcfzBr/6CWawxZxozw0/sZQ7BnTt33lNRoc3EbJdjznK3hp5dDv0oqNVWRbI59cI1qsw25kwCXI1z3Y1SukthztphqTnnKOac5SQrLN/UrVGXpam4zYvdGj2j23Jmi1kZJGcJxcXF3XPnzn1H7T8jcKdpuip2cTC/BsVJXhnrbDmWmjN3pqGhQU5mxBSjTB6iXkYtoqU5M5+zu7u7JiMprDFnDowIz2zCLvdcnIusgGtUJVwiKzSVa3QlnMLLsNcjBzplgtcrhTHPnqeBU/uMCfs1Rpizdlhuzlny+0q3xom4HfDJcoZnxmlNxW05JR2EW+pRdPeNbv0q+Zyt6XN+6KGHOFmrNbDr4qdDZFlXxlAsMWeOGuRPgMrKSnlixLKyMrkFrV5OLaKlOc+aNeu+jIyMMY9zNppzI474FSI0XY/QDD1C0rVVWEYDAlNqcdQ/H0WVzeriXz4coHL6AOByRPMBKsKctcMac87XF8A7y0nW+ZQjiCgKRmiBn6aKKAiET9Y5eGWcQFevJu0rs1xOnLOXl9fTav/RHEvMmWI/M026qakJ7e3tFvU7Ey3NuaGh4da+vj5N5gKyxpyVB4JesdWoagUqWoxP+7UU/Zh/PWMrkG+rbg0Fdmsc2Ah4n+VVrv7UZghz1g5LzVn9QDCyMBBlzRXyslpK11iK9Kq0MelzZqK3goICi1vOHR0dzaGhoZx2anQR5jw8wpyFOQtz1k7CnC3AUnOm+CCQPwUsMWaKaGnO991336MXLlzQ5OnV5ZizEufMKIpChrtpqGIm6LFFnLM5OHpwy0rjLNIaIcxZOy7XnMPyfOUHgjm12ZqqoD4fyeUJYxJKx+dnzL5pKcnJyYa///3vHH49ulhjztaKaGnOzOfs4+OjyZG9EnNmnKz6Yre1bDYIZSQ428eGDzQboCLMWTsu35wn/iAUxjnz2ZmloXQFBQW9VuRzth3j2ZzDw8OZzzlfVZc2QZiziaRo4IuPNJneSpizdghzNk9oaChcXFwsNufBwcGG7u7uR9T+oznD5XO2lYiW5rxly5Z7ysrKRD5nLc2ZcIDKng1AVZlRNkKYs3YIczYPTdnSSA1SVlbWvWjRImvinG0DZ0Kpq6uTC8EC21JEy5lQbrzxxilubm6aXDnCnIfAlKJBHsZk81SD8Xy5UoQ5a4cwZ/PwYWBaWprF+ZwZ53z//fdbG+d85QhzHh5hzkMQ5qwuut0jzNk848acV6xYsTovLw8tLS3Q6/U2FdcZGhqq2QSvb7zxxl9TU1PHfBDKhDdnwklMPU4ZdWK3TUYQCnPWDmHO5mF/szWDUNra2lpCQkJGfxDKwoULV7OwfILp6elpU7Hj/ejRo/VvvPGGJuacl5d3S2dnp93EOU9ocybdnUZx/kHnw0Bvt3oJqxDmrB3CnM3DEc5skFracmacc0REBGfQHl3YcuY4c3ZtsNC2Unl5uZyLIygoSLOW80MPPcR8znYX5zxhzVmhuQHYv8mYh8PCJ97DIcxZO4Q5m0dJ3GYpptwaluRzti1D+5yVWWltJaJlnzPzOYs45zEwZ8JJz79YAQS4qT+xGGHO2iHM2TzsJTh16pTF3RrFxcU97733nuVz/9mK8R7n3NzcPPb5nK9Gcya56cBnS4H4cPUnFiHMWTuEOZuH3a3Ozs4XG5CXYmBgQK/X6y3N52w7xrM5b9u27Q/l5eUiznmszJmkxhkniS3IUn9ySYQ5a4cwZ/Owr9lSYyZsOb///vvT1f6jOcKch0eYs4UIc7ZLhDmbR5jzKJjzr3/9aybb1+TKEeZsBdHBwN4NQGWp+pMREeasHcKczVNUVISMjAyLozUuM9n+lTOezZnJ9rOysoyFtzHCnK0kxMs4QEVfq/7ELMKctUOYs3kmXLL9yxHR0pzb2tpu7e/vz1HVpU0Q5mwlA/2AtxNwco/FA1SsMWefhBr4Jtaiug3ynI0Ul9dKrNICzm4eWSbMWQONpTlzRie2ni1tOTPOOSwsbPTjnMezOf/tb397NDw8XMQ524M5k64O4/yDZw8APZceoGKxOTex5VyDk8E6xBe0ISavVVZ0botmistvRVh6I04FFaGuyfKYWHtBmLN5mMuZsc6WwnzOYxLnPJ7NmXHOfn5+mhxZYc6XCWdR2fcZcN4RGBz5oYul5lzeDPgn1mK7axbORZTj3IUyWc7h2sklohyOgSU46JWD+uYuddHtHmHO5vHz88OJEycs7tbgA8EFCxbY7wNBpgDlDCh8yqmMsLmUiJbmHBgYKOKc7c2cSXU5sHkFEDjyABVLzdnY51wDz7gqFOsHkV/TLyuvWjtxlpmM8l64iD5nTTSW5hweHg5XV1eLIzYMBoPeYDDYb5yzMGdhzhYjzHnMEeZsnglnzjTmtrY21NTUyH8tMWiipTmvWbPmDyUlJdbFb1mIMOcrhDOnfLZsxCmurDPnWvmhYEUL5DqmaNRaiQ8cadKu4oGgJhpLc2Z3Rh+zLFpIcXFx97x586ap/UdzLDFntpp5l+GstcePH0dpaan8pFO9nFpES3O+8cYbnxX5nO3UnElKHLDNAchNU38iY605i1A6yxHmbJ78/HykpKRYHK2RmJhouP/+++33gSBnrG1sbERmZqb8l/+rl1GLaGnOU6dO/WtaWprd5HPmsmzZ8QGWEu6llejHJY0GeMRU2K85k5gQ4wNCJkpSIcxZOy7XnCMKAlHSVI58fYGmKm7UIbUqFYE559HR06IuvqZYm8+ZoXTh4eFPqf1Hcyw1Z4pdGQaDwaIuDYpoac75+fm32kM+Z4Z6hWc04rBvAYJS9QhO0yMwRVsFpzbAP7kOR/wLUFTZrC6+/WAYBEK9gUObAX3Nlz4S5qwdlppzTl0WCvQF8M50kuWSfAQXCgMQku+tqcIK/OCV6QTP9BPo7G1XF19TmM6YrWdLW87t7e3NAQEB9m3OFPue1e+ZE9HSnO+9995Hw8LCxjzOWTbnzEbs9ciFW0wV3GOq5C4OLeURUwWXyHIc8MqBrmp0Wx5WwwEqzP18bDvQ1mKUMGdNsc6cCy+2nE/F74J/9vmL/2sl36xzOJdyBO6px9DdN7rmzDhn+pilJCUliThna7njjjuetIt8zo1ASHqDbMp8rdMPyn3CWkpXb0Bh/QDcou24z3koPV3GGVRO7zOqpwuxBY3CnDXCUnNWd2uEFfiiqEGH3NocTVVQX4jk8kQEZLmMereGv78/Tp48aXG0Bh8Izp07137jnC9HRJizNhLm/FVDtaWEOX/VUG0pYc4WMJ7NOSEh4ba2trZ8VV3aBKvM2fRAkObMLg4lYkNL6fTGbbiPF3MmzY3A3vVGuR9FdH4DfNNbLtajMGfbcbnmHJ7vJz+sy63L0VSF+kIkVyQaozVG2ZzDwsJw/vx5ix8IDg4O1jc3Nz+k9h/NoTlXVxsDHvigz5YiCQkJmpnz559//odSxvVpwOWYM/uCRSjdJagqN2rHKsTvPgi/3E7oWiAP+qAZC3O2DZdrzldDKJ21+Zx1Ol3PmLScOYeg0nLmncRWUnZeS3O+8cYbnxNxzuPMnBV0uahaPg9p5/2Q3w0U1BtQohfmbCuEOZunoKAAaWlpFkdrjNkDwcWLF6/29fVFbGysPKyRunDhgk2UkJDAiRTrX3nlFU3M+b333vtrZmamyOc8Hs0ZQElgKPI+WIyKpAzkdrI7CEgvE+ZsC4Q5m4f5nHfu3Ck3Ii2htbV1bELpaM6c8DA1NVU2aCouLs4mys7OZt9O/QsvvKCJOVdXV9/a29s75nHOwpwvjyhdB0KPeKB1y2fQ5RShqAfIEOZsE4Q5m4c9BTqdTh6zYQkchBIRETH6+ZyFOQ+PMGftEeasHcKczTNuzJl9zrW1xqmFmAzEVlJ+MiQmJtZPmTJFE3P+85///FhoaGijqi5tgjBn7YnJ1cM7pwN1fn7Qb92E0rJapOoNwpxtgDBn81g7CCU5ORkPPvjg6M8hSHNmpjmijra4UhEtHwhOmjTpSZFsf/yac2xmNXzTm1DUOYDqs2fQvHsnMorrcSK2Hhll3f8egSnM2WqEOZuHz9iYwM3SPmcm2x+TaI2R4pyZjU79njUiWsY5R0ZGTmpubrabOGdhztYRm1UDv8Ra6NqBfH0Xmg/vR9m2rTgRWorUeqBEL8z5chHmbB4GPbi5uVkcTmfK5zw2cc7DmbPS+lWS7PO12nwvJaKlOTOfs06n+2q6MxsgzFl7hubWyGsDiquaUbP+E8R/+jkyG/pQ1GKcZFWYs/UIczYPW8zserUUu2g504iV1jJTghLlL3fI2pY00dKcRT7niWPOhbWDyO8ECnJLUbBgDirOOqGggy1qCHO+DIQ5mycvL0/uR7Y0zpn5nMekz3m4ljONmIUPCAhQCoeIiAi59TxcVjpzpk20NOdp06ZNzsrKqvxSTdoIYc7ao85Kx7pLbQZcz15A9crlqA6NQG4HUNYizNlahDmbR8nnbGnr2a7yOQtzFuY8Gghz1g5hzuYZ1+ZMYmJi8Oabb8qjaebNmyf/HbqMIqVvWv3+aJhzSUmJiHOeQObMB4Bp5T04ltCM3PBEtH3+KUrj06DrB3wThTlbgzBn83C6vcLCQovjnNva2pp9fX3H1pyVPmfGAbI/5sSJE7j55pvx6aefyu8R7hD7oZXWMpfje8O1qImW5vzXv/71sbCwMBHnPFHMucE4COVUWAVSm4CayEg0bFyHynwdvHLa4Blfg9IGYc6WIMzZPPQy+pOl5syeg4ceemhs+5wVc1YCtIOCgvD9738f27Ztk/9vbm6WJ3dVdoyhKJwokXGDLS0tX5lXkGhpzszn7Ofnp0m+QWHO2jOcOcuJj4J1SK/qRVEXUOnth/Zdm+ETnAWP7A5Ut0FOy0qp51W0pSqajZnyWL/CnG2vsTRnPz8/q+Kci4qKeubMmTO2s28r5kzj5RPN2bNnY+XKlZg5cya8vb3lfpr58+fLps2uDPbZsHX9/vvvQxllODTig2hpzvaWz1mYs3WYNWfTCMHiViCvZQCNLs5IXb4afrElyG42ILO8W1ZGeZdmyq7sRpKuHc7hJahpFOZsa42lOTMpmzVxzv39/Q1jls9Z3edMc2Yf85o1a2SjPXbsGBYuXCh3bxw6dAifffYZjhw5Is/EzfwZ69atQ2Wl8bncaLac165d+8eSkhKRz3mCmjP7oPOageKmbpRs3YKIRR/irH8uzkRUGRVaopmcwktxNKAIBzxzUN9s+VBfe0GYs3mszedsF3HOiqmyW4PvNTQY505ldwUjNw4ePCg/KNy4cSM8PT3ljnXmRl2/fr38mqY+muYs4pwnuDnz/ZoB6LqA8IRiRC5fg8zAOMSV9RhV0KaZEovaEZHdhDMhxahrNJ7L4wlhzubhzNvsjrU0znnM8jkLcx4eYc7aI8xZO4Q5m2dcmrPSX0yx2c/C8zXhVFbsq2FXBufgUkYOlpWVyf3R9fX1ch/0aJrzu+++Ozk7O1vEOU9Qc76Yla4J8ExphE90KerqOlDWDKNMDwa1UGUr5OPoLh4IaqKxNGdrk+0zzjk6Onr0U4YO13JWNHRwCVvTDEHhg0DlL99T3h+LULr8/Pxbu7q6RJzzRDdn0/Btj5QGlJjmG6TYqtZKxXUilE5LjaU5s6FZUlJicShde3t7c3Bw8NjGOavNdahovmwt04iVOEEl7I4t5rEwZ3vK5xyS1gDPmGpUtQLlzV8NzboS0ZzUYqgXB2S4xdcgr2b8/ewm1pqzGIRiOdaas3fmWVkRBQEobS5Hgb7Axir80l9dYwnSq1IRkDP6s2/Tq5QeAUtISkrC5MmTxzbOWW2uVyqipTnbS5wzfwaHpDbgRFAxkorbkVjYjvgC2ympuENWsq4TsfltiM1rk9+Pzm/DKa9MFGYVA/2WDUW1J4Q5a4c15kyz9Mo4Lcs74wySKxIQVxppUyWWx8rbjioOR3RxOOJKohCU5w2PdMdRbzn7+PjIEWiWRmwwWmPevHn2EeesNtnLFdHSnMPCwm6zh3zONJWU4g6cDNbJUodlXYnOMqTLv1DWIZ9ceETr4BVTCs+YUpyPq0a4xwV0HNsJuDkCaXFAk37cGLUwZ+2w2JzZxaDPR2RRkCznpINwTXW0qdxSj+NU/G64pR5FaJ4HgnJcEZTrBt+MM0goDUX/4Oier8zn7OrqarE5Dw4O6vv7+/+m9h/N4UwodXV1SiEuDse2hUhycrJm5uzg4PDHoqKiMY9zZv8n+4BzqvqQXtopD0G2lfJquhGQXCvLPUIHfXMHWtq70dTahcb2HvS2tQG5qYDvOeDEbsBxB+B1xmjUNZVAj3FGGntEmLN2WGPOObWZyKnNlpVelYKUykSkVibZRGmVyUivSoNnxmkklYbLreS27ia0djeitasRvQPGtBCjCU3Z0oeBpLCwsPfdd9+dofYfzRHmPDzCnLVHmLN2CHM2z7gx5xUrVqxmh3d5eTnHkNtMxcXFcuyzv7+/ZrNv33jjjc+5uLho8jTMGnOWVTeIkmEe5l2patqBmPwWWaHJlbzq1EU1MjgANNYBuelGoz6+EziyFTjvCCRGAhU6oyxMkzgaCHPWDmvMOVs25xxZ7OL46sO8K1EhihqKEZzrhfzadHUxx4Tc3Fyrku2PWZzz4sWLV7P/JTg4WI5XtqUYF+3o6Fj/yiuvaGLOc+bMmZyTkzMmcc5JanPWSHzYGJHVJCsgoRz9AxacUAP9QGszkJ0KBLgBJ/cAx7Yb5XociAszGfXot1qGIsxZOy5tzplDzDn7K6FutlM2cuvyEJDthpzqZHUxxwRnZ2c5ztnSfM4MpQsKChr9OGe2nHU6nRxe0tTUZFMx5C46Orp+ypQpmphzdXX1rX19fTnqyrQFI5nzmbBSpJV2yQMV2Fq2pRiWx780puIGyFnYonObZfnHW2jOajragIIso4I9gTP7gaPbgHNHgQh/oLIE6B79/BHCnLXDvDlHwi3tuBxnXNxYLLeUbaWhLeY8fZ5s/gzTK2goRmCOO7KrEtXFHBMY58zsmkrX66VgPmcvL6+n1f6jOexzVjLKsR/GliKJiYma9Tnfc889j4eEhIxqnHN+TT+O+hXCM74a0bktuJDZbCM14UJWE6Jym3EhqxmhGU2yuI2z4WWyPKNKMGDhT7ERYas6LwMI8wHO7je2qJ0OAVFBQEkh0KZJdOJXEOasHcOac0MhEsqicSpuJ8IL/BBdHIqIwiCbKbI4RFa0LhQXigIQXuiPC4WBCC8MwpnEfcisSlAXc0xQBs1Zas7sAnnkkUeWq/1Hc8ZznPOkSZOe8vPz0yRIcjhz5sg/yi+xDidDSnAuvBzONtK5C+VwCi/DbvcsuIQVIiixQm4pUx6ROllZdCtb094KlBYB0cHGFvWRbcCpfcYWtS7P+LlGCHPWDrU5s1+ZLdmM6lR4ZZzB+dRj8Eg7aTN5pp+GS8oRWSfitiMszx2RRX6IKPRBeIGXHEJX26ZJD6TVKHHOSgPyUthFPme1uV6piJbmnJaWdltHR0eeqi5tgtqch5pBsX4QBXX9KKi1nYrrB5Bf0w2XcB2Kq5rQ1z+Ant5+Wb19Rll4o798ujqB8mIgIgA4d8TY9XH2IBDuC+RnAa0tRtkIYc7a8VVzzpJbzzl12cirz0V2jbpv+MrE7ouE0mhZflln5WiM/oFe9A10o6+/GwODlhnhaMD5UN3d3a2Nc7aPfM62EhHmbJmEOQtztiXCnM0zYcxZmbKKTzaZ7Iiwz8aSkYRES3Nmsv3i4uJRiXNWzCDf1L2h0xtQbEMxbK5IPwD36HJU1repizP69HCOqHIgKhhwOWY06lN7jWIESFYK0N7CM1f9TYsR5qwd5syZf3PrcuQuDpq0rVTUUISkinhZHP3X0z/6D5gthX3NlobREZ1Ox26N0Y9zHsmcacatra1yzDJNmncaZnNinmdzM26PpjkzzlnLfM5ecdWydHqmj6QhDJpkNAdbigZdWNcPt6gylNbYrnVqE9g3x9C7hAijXE8YHyKe2AUEuAK5aUBLozGEzwqEOWuH0ZyDEFbgJ2eZY4v5okwDTmyp/PoCJJbFygrIcUFnb7u6SHYD45wTEhIsNmiOAxnzCV6HGquS05nmvHz5cjg5OSEyMhILFiyQB6zw7nOp1jPR0pxnz559r1b5nLN1DRdbzgxvk0Pbhmnx2koMnyvWD+B8ZClKqu3MnNUwl3dNBZASC3icNj5EpFH7Ohtjq+trzQ+WGYIwZ+2gOUcX+SO0wA9FjTrk1uVqqkJ9ERLL42X5Zzujo9cOfv2ZwcXFxep8zvHx8aMf52zOnCkl3MTf3x8vvvgi/vWvf12ctZa6VOuZaGnOmZmZt3Z0dGiSzzm3tAEHffJl+SXVyyaipfyT9fBOqMUh71yU19nvif0VenqA2kqTUZ8CjnKwyw7AxxlIiwfqqs22qC+as16Ys80xGBBV6IcziXsRmu+DwDxPTRWS7wO3tBOyPNKOo6tPk4G7NsHafM5tbW0tISEhox/nPJI5t7e3X+w0f+qpp/C73/3uYh5UJQeHktt5OBEtzfkPf/jDY8HBwZpkmm9p70FURrWsiLQqRKVXXfxfK3E7CTk16Ooe3szsHmbDa2oAMhKN+T2OD8n1wSHk9TXGPmrTz8nogib4pDdB1wgU1gygRC/M2ZZUN5chXheM5NILSC6N0FQpZZGI04XIKqjLwKDBsi6DsYCNTnqbpebMbo377rvPvuKchTn/2zSFOVuAMGe7Qpjz8EwIc1YMNjY2Fi+99BKefPJJ+Pn58ekl9uzZI+dE5U5yhhT190bDnG+77bYn/P397byD9iqmUW/s2gg4D5zYAzjuBFwdjUqNRnxkBvzT61HUBeS1ALpWIL2i22jOpd3CnAWaYO0gFJ1O1z1//vx31P6jOebMWXkgyBwZc+bMkXfGy8sLM2fOxLp167Bo0SIsWbJEfvJJhns4SLQ05+zs7EltbW2aJNsX2BKDsUWdnQIEuht1eg9KNqxF1tadqA4JR3FeKXRNXUitH4RjdB3SaoxZ/gpqBoU5C2wKE7K5ublZHOc8MDCgb25ufljtP5pjzpwp3lmYdyMoKEg2af4fEhKCNWvWyE88d+zYwcRGw353NMx5zZo1f9Iqn7NAY5obkRUcg4T9J9F4cD8atm9G44ljKPIMhPv5WGSVt6GoE8hrB8raAJ/EOngn1KC82YDi+kFZzKGtldjFklvZL0fPCHOeWFgb55yfn987ffr0mWr/0ZyRzJkaOghF+RnA7gxGcJw9exapqanyzqq/Nxrm/LOf/ez58+fP2+9jYcGIRBe1wjuzFaU1bShLzkWdpxeqd+5AykerULV/P6r9g1CSkYvyph64p7fAI6URlS2QU7VSHAhkC3HEZ0kjwxnZKjcYzbnBIE+e4BRegiq9/cbsCqyHv/bZj2ypQY9ZPmdLzHloyBwfAHLmFKqmpgbNzc1mQ+qIlua8YMGCybm5uRWquhSME2KyauCb0gBdG5DfChR1AJllzfB0jkTxeW80HjqI+h1b0OJ4GPGHzuD4mRi4x9fBPbbaqJgqm8gjpgpuUZVwj66EZ2yVLK+4KjhfKMepoEI0ttjvbDIC61HyOVva59zR0dEUGhr6hNp/NOdS5kyp+5OVOGfeecw9DBwNc9Yyn7NAe+Q458Taf8c5NwFpVX1wjGlAmh4oqe+ELq0A1b5BqNm7FwnH3eCXXA//1Eaj+PoKFZBcj5C0BhwPKMbpoHzklDQgq6QBmboGpBfpUVbThoFBy57qC8YHbFSWlZVZHK3BOOcxyecszFkwVghzFowFE8qc1VKbtTkRLc2Zcc4hISGaxDkLtGfY4dtlpjjnih4UtwF5raYwu+oOlFc1m/qb2e9sO1W1AiFpjYhMM14HgomN0g1rKYmJifYZ5zycFHO+lEkTLc35zjvvfCIgIKBZVZeCccKw5qwMQintkSMm5NC2ukHkN0JWQe3gV8LerkScOZ0ZAYNSG3Ahtcri1pRg/KLEOVsaSldcXNy9aNGisYlz5lhzwjsKxYd+thBJSEjQzJwZ56xVPmeB9pgz5zOhpciu7EV5Ey6GzdlU+n+/1tUPorwFCE5rQLgw56sCJnDz8PCw2JwNBoPeYDCMfj5nBweH9UwBqhUJCQntTz/99CPq7doCBweHPxYWFpaptykYHwxnzmllXXAMLEZ6WQd0ek5A0G8zGSc1GJRfc6JeKq+6H8X6fngn1iE4sUKY81WAtXHOhYWFvTNnzhz9OOcVK1bMdnZ2LvHz8yv28fEpsKX8/f1LDx8+nDRjxow/qLdrC2688cZnXV1dxQiBcYranPlgMKeqF0f8CnA8sAjnIozzKtpSp0J0cLlQBrfI8n8rqhyHfPIRk1mjLqJgApKVlcXuVosNmn3O999//+jnc3ZwcPje888/P+kf//jHpIceeui3ttTf//7321544YXfODg4fFu9XVswd+5czfI5C7RnqDnLkxiwD7huAEnFnfJs5BHZzYi0gbie6LxWBKfpccgnB6n5taiqb5dVVsNBMK1yVEZHd5+6iIIJCEc379q1y+I4587OzrHJ5yzMWTBWCHMWjAXjxpzHM/n5+bd2dnZqkmxfoD1qc1YiKJjwiBEUpQ22EfuyOew7r6YP7lFl0DdbHkYlmHgwAIKZNS3t1qA5R0RECHO2hj//+c8iznkco5hzsRwyxwd1fABonERXHfJ2JeL6dA0GZJT3GLPMNYrHFFcz1uZzTk9PH3zqqafmqP1HMAJ33HHHkyKf8/iF5hyUqkdlK1DWxNYyZyG3vZjQiNtgy5kT6Iosc1c3jHM+evSoxaF05eXlrR999NHzav8RjICIcx7fcOaXc1EVyKzskkPoUku1UUpJFzIruhBT0IITQYWoFlnmrmqYz9nd3d1ic+7t7S1ub2+/Te0/ghFYtWoV8zmLOOdxSmZxA04EFsA9shQeUWVwj9ROntHlOBumg1tEMVo6etVFEVxlWNqlQYKDg6sfeOCBP6v9RzACzOcs4pzHL339g2hs7kJ9Ywf0TVqrE3VNnWjv7OO8LIKrGOZzZuyypQ8Ejx49WixJ0j1q/xGMgDDn8Y0wZ8FYIMx5FFi6dOm9+fn5Itm+QCCwmHPnzlkV51xVVXX8xz/+8bVq/xGMQENDw629vb0izlkgEFgM50UtLy+3qN+ZYXfR0dFr1d4juAT33HPP48HBwSLOWSAQWAzTGbe1tanfHpbMzEw888wzq9TeI7gEv/vd7/4p8jkLBAJr8Pb2xpEjRywKpSsrKyt96623Jqu9R3AJIiMjJ7W0tOSrK1QgEAjMwXzOnp6eFplzU1PTOQDfUHuP4BIIcxYIBNYizHkUWL9+/R9KSkpK1RUqEAgE5qApXypSg5PAUsuWLdup9h2BBZgeCIrcGgKBwGJKSkrkWOeRojUSExMbqT/96U/PqX1HYAEfffTRXUVFRcXqihUIBAJzMLcGHwqONAiloqLiFOXg4HCN2ncEFhAbG/vLlpaWZHXFCgQCgTmam5tRX1+vfvsieXl5+Pjjj2dTas8RWMgvfvGLu8+dOyf6nAUCgUWwK4PmzMEl5nBycspkRmKTBJfJ/x4/fly0nAUCgUX09PTgzJkziIqKUn8k09fX1xUbG/u22mgE1iPMWSAQWIww59HjP9ra2rarK1ggEAiGo7e3l/mZkZ2drf5I/szV1TXu/fff/y+10Qgug3Pnzm2wdJy8QCAQMEpjuDC6tLS0zsmTJ7+v9hjBZfK3v/3t4+Rk0bMhEAguDWfd5gjBvr6+L73PQSkZGRmfS5L0HbXHjEe+Zub1qDJz5sy/VlRU6L5U0xpi7q4rsA2WDKkVaI+157i1y48V0dHRcp/zUHOmMZ85cyZ3xYoVN6n9ZbS5UZKkX6vftID/lCTpm6bX/0+SJM5G+4IkSS8zQZxq2VHDYDBcW1FR4fGlI2AFDKuprq6WTSE1NRUnT56Ei4sLs1GpF5VHFjGbFVVcfGVjX7jd/Pz8r5gR+72Y0rCwsFB+bQlVVVUoKiqyywukoaFBjinlBRAbG4sTJ07I4gSbzKs7lJycHBw8eBCnT5+W9+lKqKurk+tEDS/KlpYWuX4pS+qstLRU1niA5xPrOSsrS/6/qalJfvjFv5bAY+Xl5YVTp07J67nUOVhZWSmPtuP1wLq0pD55bHnuW7Ksreno6PhKXaSnp1f/7ne/m672lrFgmiRJ8yVJ+p4pju92k/H+jyRJfzHph5IkfVuSpO+aDPlHbKSajJhw2QWSJIVJkrRLkiSm1Pu9JEm/GrKdX5jW9WPT/7cOMfH/liTpQUmSfiBJEpOK3GJa5+XwtcWLF++jCVgL+6pXr16NtWvXyhfswoULsXjxYqxcuVJ+zROPIjyhli1bhk8++QQffvghNm7cKD/5ZcB6fHy8fFHQcNnFwocNer0era2tsilRPCG4Dd65meg7IyMDn332mXyScj00DV5QmzZtgr+/P8LDw+Xvczod5pSlCA2N2xtqPLyZbN68+WJrgCdgUlKS/BOOZaLY4qcaGxtl809JSZE/J7wRcT9YDlvCss6bNw8HDhyQL/p33nkHK1askMV6XrVqlVw2wu0vWrQIn3/+OT744APs27dPrjfeMCleyFxfQkICCgoKZHGd3FeWm/XLc4A/Wfl+TEyMXCc8fqwXxrWy3njcgoKC5OUongNcVjHqiooK+X8eI4XDhw9j//79F/9nmbku5fzgtnmsaGSs3/b2dvm48abPddK4uP5L5XOwBd3d3Xj22Wfx6quvyv9z1o+77rpLrkPuG89P1gXLxvOAdcYbmYKfnx/efvtt7Ny5E3PmzEFgYKBcRxxVx+8Q7g/riHXv7OyMbdu2ITQ0VK53Kj09XRbhOc+64rmmnJ8s06effnrx/6H1yXqkWKe8plg+lnfo+arcEKw9X1ledZL9mpqadlN0xtfVxjIWCHM2IcxZmLMwZ2HO9mTObL4vNpntIUmS2AnOLopNkiTtN4kG/rgkSQ+ZukCmSpJ02rTMf5jWQ4PdLEnSAyZt57R+kiQ9YdJGSZIcJUmaYzLiLZIkLZEk6S7TcodN23mUQReSJD2jKqfFvPzyyy/qdDrLfrcNgSfBkiVLZDPghU9zoHnyxJg/fz7Onj0ri9AA+TlPNn7Ok4UGOnfuXMyePVu+4Hfv3o1p06bJxrN+/Xr5pztNlOLJznnLZsyYId8MmLJwy5Yt2L59u3zB0Kw//vhjPP744/J73J6TkxPee+89LF26VBYvAH6XFw/LrFws7EOj0SsXP02HxrdhwwbZVLgPvKCoPXv2yN0Kyg0mIiJC3gbLywvblrB8NGTecNgtwHriRUXRKGbOnImQkBB52b1798oXLA2ON0LWL42Cy/BGybrm/nDfeZOk+D+/zxsRDWLr1q2YPn26/Jd1T3Pm/tL4+X0ea9Yvzfb8+fOyjh07Jh+zNWvWICwsDMuXL8cbb7wBBweHizcOlo3HToE3z48++ki+kVDcBstKA9yxY4e8Tm6Lx5zbffPNN+V1jJY5c3v33nuvfE6z7v/0pz/Jx5ndcTyHud80SJ5/LD9veAqstwULFshmPGvWLLkuWXYeR75mXfPcYZ2x+4lat26d/Jc3YYrnOM8pGji3xWP47rvvXmxgsMuEN2ilPnx8fOTjyfXznKd4zvK64bYdHR3lbfIcZRcNy8frYKRRfsPB8vDcV7pq2DBasmQJG5dKd+2Y84ap1esgSdKbJuPdbTLpP5rEaVlovDTo35rMnHp2yHrYql4tSdLfTcZ8UJKkHZIk7TXpE0mSnmR+IkmS3jN9zr8MVVlvamnz+zRtfu/nQ9ZtFe7u7tc3NDS4qQ+GJfAk5EnBuzFPGF5ghAbJi4wiPLHZalZgC4mGeejQIfkC5MlD8+GJxQuU5s6TVlkHTz6eVOzH4+fcFk2C77MMNFS+x4uFRs/Xb731lmwY7Aen2Arl8m5ubrI58IIjNHIagQJbO/xF8Morr8gXJ02YJk3RANmq4rp4AdHE33//fXkftMDV1VWuO15oNAa2XJRWKQ2RFybhzWVo65TLsA554/Hw8JDrgzdCmgrrleL6aDBsZbNuaazKLxLuF42C30tLS5NbeDxGNHHGuXJdFI0kLi5OXpY3AS7DGyfrVzETHicahAL3iZ+//PLLsngTUG4E/NX10ksvyevi+cAbLuuX5RoN2GpnvfLcoQly+ywLzynux+uvvy7fONi//9e//lU+B4belHmTeeqpp+Rzm+ctzy3WLeuQ5shzh4ZJo+M5xPOO9c3jwTqheMz47IDf4/GhoXJZloHwWPA7CjRwbo/nq/JMh9vidlh+3iy5D7xZ8HiyXnkMrYWNAuWY9vT0tHt5edHjfqL2k7GELWYa8yJTl8bDJjNdMWQ8Oc3zC5N5v2QyWhorHwAqkRns+uAyTKlHc+d3mCjkY5O4HXZVsJX8L0mS3jK1vGnkH5q6OfjZZ6Zlr4jly5d/ejkP6XjC8C5Mc+bFSiPghcSTVvnpS3gyvPbaa3LXAy9mmjfNgCcvT1SeRDzB2KVBI+XJyYvk0UcflcUsWDzh2Eo+evSo/BlbYzyZeRHRHHhh0zzYMuMFxJORP/doBhS3x5OdDyb5VznZ2WqhqbB7gq1ObofmzAuJ5aPp/eMf/5Dl6+srt3p4kvPComgs7IbRAu4bf1HQnLldXqgUbyy8yJTBANwHGiVb2Kxr3jBZnzRv1gdvjNwndmew3iium79SXnzxRfkhFlvSvAC5PdYv9437ybrnDYqGzfe4TrbkKN4AWAa2qFi//C5vDDQPJUST7/EcYd2y7rkerp8mTAUEBMjmxHKwrDxPuDzLyOPJmzG7EEYDNhpYVyz/P//5T/mcYl3yps9y0yTZXcFuF5oz65yGrkCjZJ2wW4ItW55/NEaaOc85npM8v1k3bChw/3hcuG7e+CkuywYCTZX1QEPkLxH+8iM8brzWeM3xmmW98/usP57Tyq9Q5brhecJtKHXJfbH2gTH3kb+USWJi4uCJEyc+LSkpYdetXUEzpRmyBU2D/JMkSSslSXI1dTVQbN3ea2o9nzB1TbDrg61nZYpw9lnTXNnSnmLqe+bnXD9FI2cfNLfzoqk1vkGSpKfppZIkHZAkiX09bF2/bup7vmyuu+66B3x9fb8aYnEJaKw0Uv6E5QXHk5UtMt612aJQWhW8uHjC84LmyUKz5E9vpQXGC5QtDZo3P6PB0BinTp0qi+vnSckWDY2CrWW2IPjzjd/nz/Xjx4/L2+VJyJYaWyBsdfECo/gTnuug0fFz5ecot8VWBw2dJzVNiic7y8qbDS+4hx9+WBYvCG6Xn9GUuU7eLEbK0nUl8OLirwmaPy9y7g/FVhUvciVahdvnPvKmSANguVhH/EnMLhz+gmDLjxc+64nirxDeeGjQ7E+kGbKu+ZfLs/65HLfH91mfvKmyjpSoEbbSeMxZZ6xHlol9m/xFRKMnrC8aB02EZaAB0Wz4PYq/Omj6L7zwgmwCvNHyHGHZaDQsw1AD1BKeZ9wuz0fWI39p8JcAy8SbHW/irHueyzzvaZ6sZwXWAfdd6ZelofHGw24N1huNlqbM/WP9cnnWKc9bro9iNxKNmL9oWF/cHlvjypBpHlve1FifNFulXLx5sy4prvtvf/ub3DXGfeD2WGaul8dNeRZkCTzH+D2eO83NzRUzZsygD31f7SH2wA2mB3EU7xx8GMg+4a1D+ovZZUHuNJk3/+f3bpYk6Vumz9j3zH5n/s/13GdqiTOIm+J3uG5+j6/50FDJ8sSHhY8NefDIirrSWOmv5efnf9jf329VoCxNl60Nnow8EdiiY7/acA8b+GCELQL2Syv9ZWxZsHXNfixeGOwH4wnNZbluPmxRHriwr5otK/Z18fvsv+YybIXQ6Gkw7Cfkyc11cF00GeWhGL/DbXBbXJfSGuNf/uzkCciLh0bHlhHXw5ao0uKgeKLyhsP1clm+5v6rg/JtBeuB+8n6ZcueRkDx14m6D5YGzpY965/wcx4P3oSUh6pKeZUHm1y/8jCYM1ewfrkdLs/PKP7S4U2T32VfN29u/C7FeuYxZV2xDrhe5cGecg6w/CwT65ctdx4j1q8SjsfjyV9ONGFleZoWt8N1cF0j5Q62JUMforE+lTriucU64HnCfaBRcX+5LOtNgTcRfm9oedlKZXeH0lrleUOD5TpZp1ye61HEfVbWo3SLsAGiPNBjmXj8acL81cJjwuuI9ag8ZFXOWZaD2+Cy3K5ynVl7vvKX1b59+7KLi4vZGFSem40LaLLsAx7XzJgx4y5fX1/rfu9McGgUbL0OjTwR2Bbe1Nk6pQkLvgx/3Si/ctQx/cPB85VifdrqfG1sbOzZt2+fy89+9jM2QscdwpwnKMKctUeYs3mEOQsUvjNr1qxt9fX12scsjRN4QYzWT+qrFdbxWIx2Gw+wXqwJeWNdKrIF7OJbu3at12233aaMtxCMFfPmzftxeXm5u/ogCQSCq4+4uLjM73//+3zeJbAH5s6d+0xAQEA3pT5YAoHg6qCmpqYtOTmZocACO+L6OXPm7KGampqse6wrEAjGNUqE1IcffuhOL1Cbg2CMefTRR39A5eTkHLGmz0sgEIxvoqKiQqhvfOMb96h9QWAHCHMWCK5OhDmPE5555pnf7du3L+tSeWkFAsH4hgNToqOjc/z8/O6i1F4gsEPuvffeR3Nzc+PUB1MgEEwcQkJCKidPnsx8QILxhI+Pzz2+vr5ZootDIJhYMI6/qqoq/dixY8zbc0U5egRjxM033zzFw8MjWQzKEAgmBhys4ujoWDVv3ryh6YwF4xEHB4dbEhISTg43v5xAIBg/tLW1Debn53v+4Q9/YDIj0WKeCPzgBz/4+axZs/YXFxcbpxIRCATjiri4uJ4NGzaccnJy+pn6+haMY4Q5CwTjG2HOE5trExMT/x4ZGRnK3LYCgcD+YQbAhoaG4BUrVrx7BZNCC8YDP/nJT347a9asLWVlZfEdHR1iqLdAYIdwEg2Gyi1dunS/k5MTZ1gSXCV8Iz4+/uZ9+/atP3LkSGljY6OItxMI7ADOjuLt7V1RWlrqMHfuXE6dp8zSJLjKuObGG2/8S1ZW1qsBAQEuLi4ujVRLS0sbRxiKEDyBQDt4fRUVFQ1SKSkpNc3NzSc2bNjw0Z133vmoiMYQXOSaa6756c033/wiFRYW9nZCQsKOAwcOpGVlZWX19fUVpqWlDfCuPjAw0Mo56zgHXVdXV2ddXV2/aR6/vs7Ozk5OEkpx1ub+/v42hvBx2e7u7s7q6uoBzqHGzHkdHR3d7PvmugYGBjo4KzHX39vb21FVVTVIcdnm5uaetra2br4uKysz9PT0dHBOOIrLlpeXG/hZa2trD5flOisqKgx9fX0dFJdjGbgst8WycX1NTU29nGOO2+E6+T7nx+vr62tn2bmejo6OLor7yG3wL/eR+8NluCzniVPqora2Vt4/Tn7A73EdXI7i9rmP3E53d3cH64KfNzY29ra2tnbzfZavt7e3neVguVmuysrKQS5HtbS0yHXB19xvrlOpi87Ozvbi4mJ5+1yG6+Vrfp91ryzHumC5lbpob2/vbmho6OM6a2pqBrgf3B+Wtb+/X94/ftbZ2SnXw5C6kJflOrgM63q4umhoaOhV6oLzO3LbFMvB4819VM4L5Vib9k9ep1IXfF1ZWWngZ6wvivVhOt6DrAuuz3ReyPunrgvlWLOM3D41MDAgH2/uB/eRdcFlWX7Wm1IXynnB5ZTznucPxePN7yrn/dD94zp4bbCczc3NTa2trbrz589XhYeHR7W0tHw+f/78FdTkyZOfc3Z2Fq1kgUVw0to7lixZcld1dfUD06ZNW7569epVvb29Uzdt2rTunXfe2VNSUjLbxcVl+XPPPXf43Llzy/Ly8t5744039lNr1qz5rKOjY9ry5cs3TZ06dW9lZeWsEydOrHj55ZcPBQUFLSksLJzz+uuv79u8efPagYGB6R988MGWWbNm7WxsbJx58ODB1dQLL7xwKCwsbGFiYuK8l1566eDWrVs/aW5unv7+++9vf++993a0tbVN37lz58f8LCkpaX5MTMwCvj5w4IBDR0fHDIrLLVq0aEtbW9uMLVu2fMqyZWRkzAkNDV38/PPPHzly5MjKioqKd99+++09ixcv3sx1rl27dgOXKygoeI9yc3NbyrJwX8vKymZx3037N33VqlWb+D/fd3Z2/vCFF1447OHhsZTfe+211/Z/8sknGyiud8mSJZu5nerq6ncdHR1XvPjii4eCg4MXp6amsi4OfP7552u53KJFi7ay3M3NzTP279+/+uWXXz5Icf+4n6xD7jfras6cOdvmz5+/Zc2aNU5PPvlkyiuvvHIoKyvr/ZCQkIWsC9ZjbW3tu6xbivXMcn/xxResi31ZWVlz/P39P2BZeHxYNu7P8uXLv+Dx+/jjjze89tprB7g/Li4uSynuI/e1qKho9ttvv7139erVG1nXK1eu/HzatGm7q6ur5brg9r29vT8oLCx8n3Wxfv36ddw2xWMyffr03bW1tTzeq7jO0NDQRcnJyXO5vW3btn3Kdc6dO3eb6VjP5HHlZ6wHKiEhYf6rr756cO/evatZV9w/1gfPER5r1hmPdVBQ0CKu/+jRo6tYF9OmTdvFY0F1d3dPZ7neeuutfXl5ee/7+fktYbnPnj37YW1t7Syeux9++OEmlpn7yeW43zzfuU7K1dV1OeuH9cn64jHkeT9jxow9PO89PT0/mDZt2qaQkJA3kpOTH/7Vr371xC9/+cvfODg4fF190QkEliDMWZizMGdhzoJxyNATa2j/GKdhV0/FPvR/9bIKX1OtkwxdduhrLjd0WXPrJ1yO61Ywt+zQ5fhXvQ/qZRXU5Ta3f8TSZdXLqetUvY9knSRJhyVJ+taQ94Z+R6mzoXVhrizq5dT7YW5ZdbnN7R+xdNmRjrX6/5GWHa7M5o63ep0j7Z+5cpOhywoEgquULyRJOjaMQQgEAoFgDNksSdIJSZK+rf5AIBAIBGOHMGeBQCCwQ4Q5CwQCgR3CPmeaM6NsBAKBQGAnCHMWCAQCO0SYs0AgENghwpwFAoHADhHmLBAIBHaIMGeBQCCwQ4Q5CwQCgR0izFkgEAjskM+FOQsEAoH9wZbzSWHOAoFAYF8IcxYIBAI7YWh6UHZrHB/ynkgdKhAIBGPE/0mS9HdJkq6TJOljSZL2SZJ0vSRJD3IWG/XCAoFAIBgdfilJkpepxewiSZK/JEmHJEkKlyTpd+qFBQKBQDA6CHMWCAQCO+UDSZIgSVKvSXy9xcw8gwKBQCAYJX4mSVKSyZQpnSRJt6kXEggEAsHos2iIOTOkbujM2QKBQCAYI34uSVKmJEk1IkpDIBBYyn/8yxhzK6SNvm6q53WmUDr2NbPlrF5OyAbiuWw6nwWC8UnYFz/9YWHAW++XRi09XBa//HBJ7LJDQrZXWdzyg/XpK/cEnJ7q7330rZCalI/2lScsP6BeTsg2Ko1dfrgs7sMjRcEzlibsnvQ/lPrcFwjsGmHOoyNhzqMrYc6CcUvE9v/9EVWduPRwZ825XgzEA/0JQF+skFbqN/3t5eu4r34uZDv1xwMDCeiqcx+sSVnlQcUdv+9X6utAILA78oOmzqO69ecNQAnQmwv0ZAtprV6T1O8LaaAcADqgK0hWyYX3N4p+aIFd4/CA9O2KpI/OUkAa0JUNtCYKCU0wJQCdGQBo0jmoTlkb4elw3Q/V14NAYDecmCvdUJO8xo3CYCrQmQ60JQkJTTx1pAGGLFnVaV/E+u++SfQ9C+wXmnNV0przFAZShDkLTVzJ5pwpqyb9i6iw7T9jrLlAYJ9MeHPmT9o2apjPrJXyE1n9vr2qdZj3rmYNMefajM8jY/b+nMPoBQL7RJizFRLmPL4lzFkwnpiw5kwT7UkHUGDUQA7Qnvxlw+rk/qZ++TtdaUBfplHq9fVnG6WsuzfDZNjDbP9SUky+P8uo7rRLGz/LKpcvA+jgvoywPMvEMvZlGXU5ZZxoEuYsGE9MWHPuTEFHQxzSUj0RF3MO9VWRRgOkufVnGo2O//emAx0pJkPOQldTHFobYmTJ73GZtiQY2pOhr45Ea2O8/J22+mhZ6EkDBk3mSsOkIQ4VDVwxya5U4w2il9vKwGB7Mprro1FfHYGWuiigOxUYyByyXIZJpjL2Z6KvLQl1FeHol28WNN4M47LcPv/nstz/9iR0NMaipT5GluFivSQb959l4s1J3laS8S//V7bJdSr7oK7b8SphzoLxxIQzZ5oKZciFt8t2vDftOXz2yVx88tG7KM3zg6E/C6001f5spMecQajPPmAgG53N8ejtykBSrBMO7Fghq7E22mjQXakw9Ofis08XYOn8N2AYyIGXy3a4n90MIA/NdVHo70iSjbG/IwXdzfHob0+W1dkUj/7OVNkoB2iwPWmyqfe0J6OlORX7d66E89H1yE93l02TZeuj8Xany6+p3vZk9LYlIcx3P2JDjiI68BC6WxPR2ZqINr3xJmLoSkOrPga97MLpTgcGsuDvthOH9qyW1duZJhu4oTMFLXXR6GVL2vQ/b1QG3qx609HeEIuu5gS5LIbuNHQ1xWOgJUGWXK/q+h5PEuYsGE9MWHNGPvbtWIEF770CX4/deGHKwwjzP4zwgEPY4PA+wv0OYvXyGXj7tSeRm+qKdatmY/eWpXA5/QWe/uf9subPfgk+LtthoFEZCrFowdv431/9DPGRp3HG8TPs3fYhAr32Yv67/4Lb2c3IS3fHpk/n4fDuVdj5+RJZDh/OxBfrFmDVB+/Ax3UHygr9sXPTEuz+YhnSkj2x+qNZ2LJuAeLCHOHntgtrPpyJMN99KM3xwfaNi2Ud3LkKCREn8frL/8TKJdMQ4L4TWYnnsGbFu1i7ajayE87ByXEDFs95FXu3LEdnYyyAYhzZ64Dli9+R1d1tjPHNiHPCxjVzcWzvx4gOOoIQ771orI6U9zM65Ch2bFqC/ds/Ql6KK/ZsXo59W5ahWx8ja9y3ooU5C8YTE9ecC3D80Fq8+q/H8Mnq2XjphUcRGXwMZ459hrmzXsacmS/ii/ULsWntfGxeOx/rP1kAH/c9sjHNmvaCrA1rF2HB+69CXxOJgcFC7Nq2Agtmv4xPVs7Cod2rZONduvAtOB7egE9Wzsba1bMxfeqzOLpvDWZNe17WutXv4eUXHsU6h/ex3uF9BHnuxpZ1i/Dqi4/hwM6V2LVlOT5ZMQunD6/Fojmv4d2pz8HXdTtig4/KJkq9+q/HsWfLh9j4yVzZ1Hd+sQTLF72NLzYuw4Hda7Dw/Vfw7rTnseOLpVg85zUkRJ8GUI7TR9dh/cdzZfX35co3LG5/9bLpeOPlf2L7xg/kG4fP+R1YuXQ65s56CQvnvIYF772KJfPewItT/o5Tjptg6M2Q9aX++fEoYc6C8cTENec8HNrjILeOdYVBsjmyxbx90xLZUN969Sk47v8EZ45uwKpl0xHsfwT9Pblyq3fbpqWycjKDsHje69Dl+WFgoAifrV0AT+cd2L31Izx0312Y/uYz2PTpfLS3ZWLnlg+x6L1XcOLoeqQlnceOTR/ISok4gXUfz0FqvDM2r1sot0w3fjIPU994Cls/W4StGxdj6YK3cOLgp3B2/AwfffAOdnyxBMf2fYzP1syV9fpL/8TOz5fi9JF18DizWTbzqa89iaQEb2Sk+OP1F/8hd9tUlwbJ2wzwOQCgEicOfoJPV86SNThQhP6+PBzctQoOy2fINwyXk5twZI8DXn/xcRzZtVLen0VzX8fmDQtlk+d26mpijA9TqZEeQI4HCXMWjCeEOQtzFuYsENghE9ecC3Bk3xq89tI/cWj/p1i64E1s3rAY8959GSs+eAdvvfakbKw03L07VshdCvu2f4Rdn3+AfdtXyspM88OyhW+htMAfg4PF+GT1ewjw2otyXRjuuuM3WPnBVGxdv1DuN+a6j+51wMkj65EWfw67Ny+TlRDqiI1rFyAt3gnbPluExXNfkx8qzp/1ElYueUfuquANhH3AR/d8jOWLpsoGyRvIhx9MlTXrnefkvmV2aaxdOVvuy6YJr1g6A+sc5mDLuoXYvXkJSrO9sGvTEgT7HwJQBefjG/HMP++XtWvrCrg7b5P74D9c9BZef+lxOB3/DEFee/G7229GapwLDu1ajTkz/4XN6xfgwPYV2LphEWorL/w73G+8h+MJcxaMJyacOSvqzURRphcO7V6NvVuXI8RnP1obYmUzOnnwU7mfNT7MEWF+B1Cc7SW3Mt3PbIYuyxP5qW6ymiojkBx5Ch0MRevOQHqcEyryfIG+bEQFHUFhujuSo05h45o5SLhwAnWlwShIc0NjeShyk1xk1euCkBHvBH1ZCPJSziMz8ZzcQmarNcR7H1KjzyAzzgllOd4I9tmPPds+RHr8OeRluOP0kbWyzp3YiJigI0iNPA0/153IT3FDXUkIDu1aAcf9H6O6KAAFqa5orbogb7OqOEguY2W+P44f/EQW6yDIYxcSwk/g9NH1OHdiEzLjneFyYhNmT3sBLc3JaKiJlKNUTh9ZLz+QzEl2QScfBLKvebz3N1PCnAXjiQlrzhQfYhlyjOFw8t8M42u+P8h0nUPiiOWYYWOss3E5PgBLlsPs5BhjhqgxPpjxxKZuE2NccQYG5Xhmk3pMD86UgSyMH+Zfvsfv8ztc/uL2MuWwN3l7vZkYkOOwTS1VJc6YnyvrV76j7Ecf12V6zXIyhprbZBY2eRCOMQsb+hlvnfHv9SIfXS0J2L/tQ4Sxpc39NO2PLMZbcxvjPXxuqIQ5C8YTE9qcaSw0O0o22CGj7OT4XtMIQWU5uXVo6haRxQs6xfiX35Vfm8xKec2/jCuW1z/kuxyQQimvL65TKZNp0Ae/J39uWqe8LtNyvBHIA2dSTeszlZevWQauhwNXlPXK5RryWtnfi/vM73LgiXG9/S0JqK8Ik+OwL9YPt8/PWZ6h650IEuYsGE9MaHOm2E86tK9U/t/GD7ZstT512dRlV0seOn6JbSvrGK4OaLxsLcstbQu3OZ4lzFkwnhDmbAPZan3qsqnLrpYwZ+skzFkwnpjw5iwkpEiYs2A8QXOuTP7YlRLmLDSh9SVz3hwVdkAk2xfYMRvfka6vTF7tRsHAh0cZXz2phTSSDXNNC11aNGdky6rL3BwjWs4Cu+YBSfpGWdyiAxTAcLECoFV5Qs+/QpqpnREfpigPIQ1lMueePABZssqTVvoeeke6Xn09CAR2RabbM/+gWkv31QJMkFMEoFBIcxWbpH5fyPbiOV2Azurj7VR+wMtvqa8DgcAe+Q9KF/L6m/rszekd1afbu6qd2jqrzgppoO4ap9aO6jNtyVG7+zNi9vV11Ti1dtc6taqXE7KRqp3aOqqdOprydxSUhU1bSB11kL6tvggEAntEmPMoSpjzKEuYs2AiEH38L7fleTz/TJ7ni1OyPV56Rsj2qgx69clszxen3HPHjyMe/OPPXCtCX35C5/fy0+rlhGwkzxen5Hi98Gzy6QfukSTp6yYJBAKBWY5JkvSp+k2BQCAQjB3flCTpjCRJn6s/EAgEAsHY8Z+SJJ2VJOkL9QcCgUAgGDuEOQsEAoEdIsxZIBAI7BBhzgKBQGCHCHMWCAQCO0SYs0AgENghwpwFAoHADhHmLBAIBHaIMGeBQCCwQ4Q5CwQCgR0izFkgEAjsEGHOAoFAYIcIcxYIBAI7RJizQCAQ2AlfkyTpe6Z0oeSEJEkbTK+/I0liwlGBQCAYK+6VJGmlJEm/lyTpqMmc/yxJ0mpJkm5VLywQCASC0UGYs0AgENgh/yNJUpQkSQWSJGVLkpQuSVKJJEnnTV0eAoFAIBgjZkiShCHqlCTpcfVCAoFAIBhd/tvUelbMmXMJflu9kEAgEAhGn/eHtJqfVn8oEAgEAoFAIBAIBAKBQCAQCAQCgUAwUfn/FJFOAhkxE14AAAAASUVORK5CYII=;" vertex="1" parent="1">
          <mxGeometry x="190" width="359" height="357" as="geometry" />
        </mxCell>
        <mxCell id="um-ow4C1Y7SK6Hag5-xn-6" style="edgeStyle=orthogonalEdgeStyle;rounded=0;orthogonalLoop=1;jettySize=auto;html=1;entryX=0.5;entryY=0;entryDx=0;entryDy=0;" edge="1" parent="1" source="um-ow4C1Y7SK6Hag5-xn-3" target="um-ow4C1Y7SK6Hag5-xn-5">
          <mxGeometry relative="1" as="geometry" />
        </mxCell>
        <mxCell id="um-ow4C1Y7SK6Hag5-xn-3" value="&lt;font face=&quot;Times New Roman&quot; style=&quot;font-size: 24px;&quot;&gt;&lt;b&gt;GRU&lt;/b&gt;&lt;/font&gt;" style="rounded=1;whiteSpace=wrap;html=1;fillColor=#66FFFF;shadow=1;" vertex="1" parent="1">
          <mxGeometry x="320" y="357" width="120" height="60" as="geometry" />
        </mxCell>
        <mxCell id="um-ow4C1Y7SK6Hag5-xn-12" value="" style="edgeStyle=orthogonalEdgeStyle;rounded=0;orthogonalLoop=1;jettySize=auto;html=1;" edge="1" parent="1" source="um-ow4C1Y7SK6Hag5-xn-5" target="um-ow4C1Y7SK6Hag5-xn-10">
          <mxGeometry relative="1" as="geometry" />
        </mxCell>
        <mxCell id="um-ow4C1Y7SK6Hag5-xn-5" value="&lt;font style=&quot;font-size: 24px;&quot; face=&quot;Times New Roman&quot;&gt;&lt;b&gt;MultiHeadAttention&lt;/b&gt;&lt;/font&gt;" style="shape=ext;double=1;rounded=1;whiteSpace=wrap;html=1;fillColor=#FFCCE6;" vertex="1" parent="1">
          <mxGeometry x="270" y="460" width="220" height="80" as="geometry" />
        </mxCell>
        <mxCell id="um-ow4C1Y7SK6Hag5-xn-14" style="edgeStyle=orthogonalEdgeStyle;rounded=0;orthogonalLoop=1;jettySize=auto;html=1;entryX=0.5;entryY=0;entryDx=0;entryDy=0;" edge="1" parent="1" source="um-ow4C1Y7SK6Hag5-xn-10" target="um-ow4C1Y7SK6Hag5-xn-13">
          <mxGeometry relative="1" as="geometry" />
        </mxCell>
        <mxCell id="um-ow4C1Y7SK6Hag5-xn-10" value="&lt;font face=&quot;Times New Roman&quot; style=&quot;font-size: 24px;&quot;&gt;&lt;b&gt;GRU&lt;/b&gt;&lt;/font&gt;" style="rounded=1;whiteSpace=wrap;html=1;fillColor=#66FFFF;shadow=1;" vertex="1" parent="1">
          <mxGeometry x="320" y="580" width="120" height="60" as="geometry" />
        </mxCell>
        <mxCell id="um-ow4C1Y7SK6Hag5-xn-16" style="edgeStyle=orthogonalEdgeStyle;rounded=0;orthogonalLoop=1;jettySize=auto;html=1;" edge="1" parent="1" source="um-ow4C1Y7SK6Hag5-xn-13" target="um-ow4C1Y7SK6Hag5-xn-15">
          <mxGeometry relative="1" as="geometry" />
        </mxCell>
        <mxCell id="um-ow4C1Y7SK6Hag5-xn-13" value="&lt;div&gt;&lt;font style=&quot;font-size: 14px;&quot; face=&quot;Times New Roman&quot;&gt;&lt;b&gt;Sigmoid Activated&lt;/b&gt;&lt;/font&gt;&lt;/div&gt;&lt;font style=&quot;&quot; size=&quot;3&quot; face=&quot;Times New Roman&quot;&gt;&lt;b&gt;Dense Layer&lt;/b&gt;&lt;/font&gt;" style="ellipse;whiteSpace=wrap;html=1;aspect=fixed;fillColor=#FFD966;" vertex="1" parent="1">
          <mxGeometry x="330" y="680" width="100" height="100" as="geometry" />
        </mxCell>
        <mxCell id="um-ow4C1Y7SK6Hag5-xn-15" value="&lt;font face=&quot;Times New Roman&quot; style=&quot;font-size: 14px;&quot;&gt;&lt;b&gt;Final Prediction&lt;/b&gt;&lt;/font&gt;&lt;div&gt;&lt;font face=&quot;Times New Roman&quot; size=&quot;3&quot;&gt;&lt;b&gt;Normal/Attack&lt;/b&gt;&lt;/font&gt;&lt;/div&gt;" style="text;html=1;align=center;verticalAlign=middle;resizable=0;points=[];autosize=1;strokeColor=none;fillColor=none;" vertex="1" parent="1">
          <mxGeometry x="315" y="820" width="130" height="50" as="geometry" />
        </mxCell>
      </root>
    </mxGraphModel>
  </diagram>
</mxfile>
